<svg width="56" height="74" viewBox="0 0 56 74" fill="none" xmlns="http://www.w3.org/2000/svg">
<rect x="3" y="1" width="51" height="51" rx="25.5" fill="white" fill-opacity="0.2"/>
<g clip-path="url(#clip0_2151_2170)">
<path d="M13.7715 21.3784H18.0902C18.2738 21.3784 18.4524 21.3153 18.5913 21.1986L26.9833 14.1821C27.4843 13.7642 28.2558 14.1117 28.2558 14.7555V38.2419C28.2558 38.8809 27.4967 39.2307 26.9932 38.825L18.6707 32.1097C18.5318 31.998 18.3581 31.9372 18.1795 31.9372H13.7715C13.3448 31.9372 13 31.5995 13 31.1816V22.134C13 21.7186 13.3448 21.3784 13.7715 21.3784Z" fill="#4CD4B2"/>
<path d="M34.7997 32.6971C36.3278 31.1422 37.2704 29.0309 37.2704 26.7034C37.2704 24.2471 36.2236 22.0314 34.5417 20.457L32.8946 22.1067C34.1374 23.2607 34.9138 24.8934 34.9138 26.7034C34.9138 28.3846 34.244 29.9128 33.1526 31.0474L34.7997 32.6971Z" fill="#4CD4B2"/>
<path d="M40.2074 38.1105C43.1693 35.1805 45 31.1523 45 26.7038C45 22.1266 43.0602 17.9963 39.947 15.0469L38.213 16.7816C40.8673 19.2913 42.5194 22.8068 42.5194 26.7038C42.5194 30.472 40.974 33.8856 38.4735 36.3734L40.2074 38.1105Z" fill="#4CD4B2"/>
</g>
<rect x="3" y="1" width="51" height="51" rx="25.5" stroke="#4CD4B2" stroke-width="2"/>
<path d="M4.20028 72H2.51278L5.58523 63.2727H7.53693L10.6136 72H8.92614L6.59517 65.0625H6.52699L4.20028 72ZM4.25568 68.5781H8.85795V69.848H4.25568V68.5781ZM15.8668 69.2472V65.4545H17.4094V72H15.9137V70.8366H15.8455C15.6978 71.2031 15.4549 71.5028 15.1168 71.7358C14.7816 71.9687 14.3683 72.0852 13.8768 72.0852C13.4478 72.0852 13.0685 71.9901 12.739 71.7997C12.4123 71.6065 12.1566 71.3267 11.9719 70.9602C11.7873 70.5909 11.695 70.1449 11.695 69.6222V65.4545H13.2376V69.3835C13.2376 69.7983 13.3512 70.1278 13.5785 70.3722C13.8058 70.6165 14.104 70.7386 14.4734 70.7386C14.7006 70.7386 14.9208 70.6832 15.1339 70.5724C15.3469 70.4616 15.5217 70.2969 15.658 70.0781C15.7972 69.8565 15.8668 69.5795 15.8668 69.2472ZM21.4247 72.1151C20.9105 72.1151 20.4503 71.983 20.044 71.7188C19.6378 71.4545 19.3168 71.071 19.081 70.5682C18.8452 70.0653 18.7273 69.4545 18.7273 68.7358C18.7273 68.0085 18.8466 67.3949 19.0852 66.8949C19.3267 66.392 19.652 66.0128 20.0611 65.7571C20.4702 65.4986 20.9261 65.3693 21.429 65.3693C21.8125 65.3693 22.1278 65.4347 22.375 65.5653C22.6222 65.6932 22.8182 65.848 22.9631 66.0298C23.108 66.2088 23.2202 66.3778 23.2997 66.5369H23.3636V63.2727H24.9105V72H23.3935V70.9688H23.2997C23.2202 71.1278 23.1051 71.2969 22.9545 71.4759C22.804 71.652 22.6051 71.8026 22.358 71.9276C22.1108 72.0526 21.7997 72.1151 21.4247 72.1151ZM21.8551 70.8494C22.1818 70.8494 22.4602 70.7614 22.6903 70.5852C22.9205 70.4062 23.0952 70.1577 23.2145 69.8395C23.3338 69.5213 23.3935 69.1506 23.3935 68.7273C23.3935 68.304 23.3338 67.9361 23.2145 67.6236C23.098 67.3111 22.9247 67.0682 22.6946 66.8949C22.4673 66.7216 22.1875 66.6349 21.8551 66.6349C21.5114 66.6349 21.2244 66.7244 20.9943 66.9034C20.7642 67.0824 20.5909 67.3295 20.4744 67.6449C20.358 67.9602 20.2997 68.321 20.2997 68.7273C20.2997 69.1364 20.358 69.5014 20.4744 69.8224C20.5938 70.1406 20.7685 70.392 20.9986 70.5767C21.2315 70.7585 21.517 70.8494 21.8551 70.8494ZM26.5543 72V65.4545H28.0969V72H26.5543ZM27.3299 64.5256C27.0856 64.5256 26.8754 64.4446 26.6992 64.2827C26.5231 64.1179 26.435 63.9205 26.435 63.6903C26.435 63.4574 26.5231 63.2599 26.6992 63.098C26.8754 62.9332 27.0856 62.8509 27.3299 62.8509C27.5771 62.8509 27.7873 62.9332 27.9606 63.098C28.1367 63.2599 28.2248 63.4574 28.2248 63.6903C28.2248 63.9205 28.1367 64.1179 27.9606 64.2827C27.7873 64.4446 27.5771 64.5256 27.3299 64.5256ZM32.5384 72.1278C31.8991 72.1278 31.3452 71.9872 30.8764 71.706C30.4077 71.4247 30.044 71.0312 29.7855 70.5256C29.5298 70.0199 29.402 69.429 29.402 68.7528C29.402 68.0767 29.5298 67.4844 29.7855 66.9759C30.044 66.4673 30.4077 66.0724 30.8764 65.7912C31.3452 65.5099 31.8991 65.3693 32.5384 65.3693C33.1776 65.3693 33.7315 65.5099 34.2003 65.7912C34.669 66.0724 35.0313 66.4673 35.2869 66.9759C35.5455 67.4844 35.6747 68.0767 35.6747 68.7528C35.6747 69.429 35.5455 70.0199 35.2869 70.5256C35.0313 71.0312 34.669 71.4247 34.2003 71.706C33.7315 71.9872 33.1776 72.1278 32.5384 72.1278ZM32.5469 70.892C32.8935 70.892 33.1832 70.7969 33.4162 70.6065C33.6491 70.4134 33.8224 70.1548 33.9361 69.831C34.0526 69.5071 34.1108 69.1463 34.1108 68.7486C34.1108 68.348 34.0526 67.9858 33.9361 67.6619C33.8224 67.3352 33.6491 67.0753 33.4162 66.8821C33.1832 66.6889 32.8935 66.5923 32.5469 66.5923C32.1918 66.5923 31.8963 66.6889 31.6605 66.8821C31.4276 67.0753 31.2528 67.3352 31.1364 67.6619C31.0227 67.9858 30.9659 68.348 30.9659 68.7486C30.9659 69.1463 31.0227 69.5071 31.1364 69.831C31.2528 70.1548 31.4276 70.4134 31.6605 70.6065C31.8963 70.7969 32.1918 70.892 32.5469 70.892ZM42.8157 72.1278C42.1765 72.1278 41.6225 71.9872 41.1538 71.706C40.685 71.4247 40.3214 71.0312 40.0629 70.5256C39.8072 70.0199 39.6793 69.429 39.6793 68.7528C39.6793 68.0767 39.8072 67.4844 40.0629 66.9759C40.3214 66.4673 40.685 66.0724 41.1538 65.7912C41.6225 65.5099 42.1765 65.3693 42.8157 65.3693C43.4549 65.3693 44.0089 65.5099 44.4776 65.7912C44.9464 66.0724 45.3086 66.4673 45.5643 66.9759C45.8228 67.4844 45.9521 68.0767 45.9521 68.7528C45.9521 69.429 45.8228 70.0199 45.5643 70.5256C45.3086 71.0312 44.9464 71.4247 44.4776 71.706C44.0089 71.9872 43.4549 72.1278 42.8157 72.1278ZM42.8242 70.892C43.1708 70.892 43.4606 70.7969 43.6935 70.6065C43.9265 70.4134 44.0998 70.1548 44.2134 69.831C44.3299 69.5071 44.3881 69.1463 44.3881 68.7486C44.3881 68.348 44.3299 67.9858 44.2134 67.6619C44.0998 67.3352 43.9265 67.0753 43.6935 66.8821C43.4606 66.6889 43.1708 66.5923 42.8242 66.5923C42.4691 66.5923 42.1737 66.6889 41.9379 66.8821C41.7049 67.0753 41.5302 67.3352 41.4137 67.6619C41.3001 67.9858 41.2433 68.348 41.2433 68.7486C41.2433 69.1463 41.3001 69.5071 41.4137 69.831C41.5302 70.1548 41.7049 70.4134 41.9379 70.6065C42.1737 70.7969 42.4691 70.892 42.8242 70.892ZM48.804 68.1648V72H47.2614V65.4545H48.7358V66.5668H48.8125C48.9631 66.2003 49.2031 65.9091 49.5327 65.6932C49.8651 65.4773 50.2756 65.3693 50.7642 65.3693C51.2159 65.3693 51.6094 65.4659 51.9446 65.6591C52.2827 65.8523 52.544 66.1321 52.7287 66.4986C52.9162 66.8651 53.0085 67.3097 53.0057 67.8324V72H51.4631V68.071C51.4631 67.6335 51.3494 67.2912 51.1222 67.044C50.8977 66.7969 50.5866 66.6733 50.1889 66.6733C49.919 66.6733 49.679 66.733 49.4688 66.8523C49.2614 66.9687 49.098 67.1378 48.9787 67.3594C48.8622 67.581 48.804 67.8494 48.804 68.1648Z" fill="#4CD4B2"/>
<defs>
<clipPath id="clip0_2151_2170">
<rect width="32" height="25" fill="white" transform="translate(13 14)"/>
</clipPath>
</defs>
</svg>
