<svg width="56" height="73" viewBox="0 0 56 73" fill="none" xmlns="http://www.w3.org/2000/svg">
<rect x="1" y="1" width="51" height="51" rx="25.5" fill="white" fill-opacity="0.2"/>
<path d="M11.7619 21.3788H16.0272C16.2085 21.3788 16.3849 21.3156 16.5221 21.199L24.8102 14.1821C25.3051 13.7642 26.067 14.1117 26.067 14.7555V38.2431C26.067 38.8821 25.3173 39.232 24.82 38.8262L16.6005 32.1106C16.4633 31.9989 16.2918 31.9381 16.1154 31.9381H11.7619C11.3405 31.9381 11 31.6004 11 31.1825V22.1344C11 21.7189 11.3405 21.3788 11.7619 21.3788Z" fill="#4CD4B2"/>
<path d="M32.2018 20.5065L30.5423 22.1523L41.3382 32.859L42.9978 31.2132L32.2018 20.5065Z" fill="#4CD4B2"/>
<path d="M30.5445 31.2135L32.2041 32.8594L43 22.1527L41.3404 20.5068L30.5445 31.2135Z" fill="#4CD4B2"/>
<rect x="1" y="1" width="51" height="51" rx="25.5" stroke="#4CD4B2" stroke-width="2"/>
<path d="M3.3331 71H1.6456L4.71804 62.2727H6.66974L9.74645 71H8.05895L5.72798 64.0625H5.6598L3.3331 71ZM3.38849 67.5781H7.99077V68.848H3.38849V67.5781ZM14.9996 68.2472V64.4545H16.5423V71H15.0465V69.8366H14.9783C14.8306 70.2031 14.5877 70.5028 14.2496 70.7358C13.9144 70.9687 13.5011 71.0852 13.0096 71.0852C12.5806 71.0852 12.2013 70.9901 11.8718 70.7997C11.5451 70.6065 11.2894 70.3267 11.1048 69.9602C10.9201 69.5909 10.8278 69.1449 10.8278 68.6222V64.4545H12.3704V68.3835C12.3704 68.7983 12.484 69.1278 12.7113 69.3722C12.9386 69.6165 13.2369 69.7386 13.6062 69.7386C13.8335 69.7386 14.0536 69.6832 14.2667 69.5724C14.4798 69.4616 14.6545 69.2969 14.7908 69.0781C14.93 68.8565 14.9996 68.5795 14.9996 68.2472ZM20.5575 71.1151C20.0433 71.1151 19.5831 70.983 19.1768 70.7188C18.7706 70.4545 18.4496 70.071 18.2138 69.5682C17.978 69.0653 17.8601 68.4545 17.8601 67.7358C17.8601 67.0085 17.9794 66.3949 18.218 65.8949C18.4595 65.392 18.7848 65.0128 19.1939 64.7571C19.603 64.4986 20.0589 64.3693 20.5618 64.3693C20.9453 64.3693 21.2607 64.4347 21.5078 64.5653C21.755 64.6932 21.951 64.848 22.0959 65.0298C22.2408 65.2088 22.353 65.3778 22.4325 65.5369H22.4964V62.2727H24.0433V71H22.5263V69.9688H22.4325C22.353 70.1278 22.2379 70.2969 22.0874 70.4759C21.9368 70.652 21.7379 70.8026 21.4908 70.9276C21.2436 71.0526 20.9325 71.1151 20.5575 71.1151ZM20.9879 69.8494C21.3146 69.8494 21.593 69.7614 21.8232 69.5852C22.0533 69.4062 22.228 69.1577 22.3473 68.8395C22.4666 68.5213 22.5263 68.1506 22.5263 67.7273C22.5263 67.304 22.4666 66.9361 22.3473 66.6236C22.2308 66.3111 22.0575 66.0682 21.8274 65.8949C21.6001 65.7216 21.3203 65.6349 20.9879 65.6349C20.6442 65.6349 20.3572 65.7244 20.1271 65.9034C19.897 66.0824 19.7237 66.3295 19.6072 66.6449C19.4908 66.9602 19.4325 67.321 19.4325 67.7273C19.4325 68.1364 19.4908 68.5014 19.6072 68.8224C19.7266 69.1406 19.9013 69.392 20.1314 69.5767C20.3643 69.7585 20.6499 69.8494 20.9879 69.8494ZM25.6871 71V64.4545H27.2298V71H25.6871ZM26.4627 63.5256C26.2184 63.5256 26.0082 63.4446 25.832 63.2827C25.6559 63.1179 25.5678 62.9205 25.5678 62.6903C25.5678 62.4574 25.6559 62.2599 25.832 62.098C26.0082 61.9332 26.2184 61.8509 26.4627 61.8509C26.7099 61.8509 26.9201 61.9332 27.0934 62.098C27.2695 62.2599 27.3576 62.4574 27.3576 62.6903C27.3576 62.9205 27.2695 63.1179 27.0934 63.2827C26.9201 63.4446 26.7099 63.5256 26.4627 63.5256ZM31.6712 71.1278C31.032 71.1278 30.478 70.9872 30.0092 70.706C29.5405 70.4247 29.1768 70.0312 28.9183 69.5256C28.6626 69.0199 28.5348 68.429 28.5348 67.7528C28.5348 67.0767 28.6626 66.4844 28.9183 65.9759C29.1768 65.4673 29.5405 65.0724 30.0092 64.7912C30.478 64.5099 31.032 64.3693 31.6712 64.3693C32.3104 64.3693 32.8643 64.5099 33.3331 64.7912C33.8018 65.0724 34.1641 65.4673 34.4197 65.9759C34.6783 66.4844 34.8075 67.0767 34.8075 67.7528C34.8075 68.429 34.6783 69.0199 34.4197 69.5256C34.1641 70.0312 33.8018 70.4247 33.3331 70.706C32.8643 70.9872 32.3104 71.1278 31.6712 71.1278ZM31.6797 69.892C32.0263 69.892 32.3161 69.7969 32.549 69.6065C32.782 69.4134 32.9553 69.1548 33.0689 68.831C33.1854 68.5071 33.2436 68.1463 33.2436 67.7486C33.2436 67.348 33.1854 66.9858 33.0689 66.6619C32.9553 66.3352 32.782 66.0753 32.549 65.8821C32.3161 65.6889 32.0263 65.5923 31.6797 65.5923C31.3246 65.5923 31.0291 65.6889 30.7933 65.8821C30.5604 66.0753 30.3857 66.3352 30.2692 66.6619C30.1555 66.9858 30.0987 67.348 30.0987 67.7486C30.0987 68.1463 30.1555 68.5071 30.2692 68.831C30.3857 69.1548 30.5604 69.4134 30.7933 69.6065C31.0291 69.7969 31.3246 69.892 31.6797 69.892ZM41.9485 71.1278C41.3093 71.1278 40.7553 70.9872 40.2866 70.706C39.8178 70.4247 39.4542 70.0312 39.1957 69.5256C38.94 69.0199 38.8121 68.429 38.8121 67.7528C38.8121 67.0767 38.94 66.4844 39.1957 65.9759C39.4542 65.4673 39.8178 65.0724 40.2866 64.7912C40.7553 64.5099 41.3093 64.3693 41.9485 64.3693C42.5877 64.3693 43.1417 64.5099 43.6104 64.7912C44.0792 65.0724 44.4414 65.4673 44.6971 65.9759C44.9556 66.4844 45.0849 67.0767 45.0849 67.7528C45.0849 68.429 44.9556 69.0199 44.6971 69.5256C44.4414 70.0312 44.0792 70.4247 43.6104 70.706C43.1417 70.9872 42.5877 71.1278 41.9485 71.1278ZM41.957 69.892C42.3036 69.892 42.5934 69.7969 42.8263 69.6065C43.0593 69.4134 43.2326 69.1548 43.3462 68.831C43.4627 68.5071 43.521 68.1463 43.521 67.7486C43.521 67.348 43.4627 66.9858 43.3462 66.6619C43.2326 66.3352 43.0593 66.0753 42.8263 65.8821C42.5934 65.6889 42.3036 65.5923 41.957 65.5923C41.6019 65.5923 41.3065 65.6889 41.0707 65.8821C40.8377 66.0753 40.663 66.3352 40.5465 66.6619C40.4329 66.9858 40.3761 67.348 40.3761 67.7486C40.3761 68.1463 40.4329 68.5071 40.5465 68.831C40.663 69.1548 40.8377 69.4134 41.0707 69.6065C41.3065 69.7969 41.6019 69.892 41.957 69.892ZM49.7095 64.4545V65.6477H45.8402V64.4545H49.7095ZM46.8075 71V63.8366C46.8075 63.3963 46.8984 63.0298 47.0803 62.7372C47.2649 62.4446 47.5121 62.2259 47.8217 62.081C48.1314 61.9361 48.4751 61.8636 48.853 61.8636C49.12 61.8636 49.3572 61.8849 49.5646 61.9276C49.772 61.9702 49.9254 62.0085 50.0249 62.0426L49.718 63.2358C49.6527 63.2159 49.5703 63.196 49.4709 63.1761C49.3714 63.1534 49.2607 63.142 49.1385 63.142C48.8516 63.142 48.6484 63.2116 48.5291 63.3509C48.4126 63.4872 48.3544 63.6832 48.3544 63.9389V71H46.8075ZM54.233 64.4545V65.6477H50.3636V64.4545H54.233ZM51.331 71V63.8366C51.331 63.3963 51.4219 63.0298 51.6037 62.7372C51.7884 62.4446 52.0355 62.2259 52.3452 62.081C52.6548 61.9361 52.9986 61.8636 53.3764 61.8636C53.6435 61.8636 53.8807 61.8849 54.0881 61.9276C54.2955 61.9702 54.4489 62.0085 54.5483 62.0426L54.2415 63.2358C54.1761 63.2159 54.0938 63.196 53.9943 63.1761C53.8949 63.1534 53.7841 63.142 53.6619 63.142C53.375 63.142 53.1719 63.2116 53.0526 63.3509C52.9361 63.4872 52.8778 63.6832 52.8778 63.9389V71H51.331Z" fill="#4CD4B2"/>
</svg>
