<svg width="62" height="62" viewBox="0 0 62 62" fill="none" xmlns="http://www.w3.org/2000/svg">
<g id="&#231;&#148;&#159;&#231;&#137;&#169;&#229;&#136;&#182;&#232;&#141;&#175;&#232;&#161;&#140;&#228;&#184;&#154; &#230;&#130;&#172;&#230;&#181;&#174;&#230;&#128;&#129;">
<g id="Ellipse 55" filter="url(#filter0_b_1801_2311)">
<circle cx="31" cy="31" r="26" fill="url(#paint0_radial_1801_2311)" fill-opacity="0.6"/>
<circle cx="31" cy="31" r="25.85" stroke="#79FFFF" stroke-width="0.3"/>
</g>
<g id="Ellipse 56" style="mix-blend-mode:screen" filter="url(#filter1_f_1801_2311)">
<circle cx="31" cy="31" r="28.5" stroke="#79FFFF"/>
</g>
<circle id="Ellipse 57" cx="31" cy="31" r="28.75" stroke="#79FFFF" stroke-width="0.5"/>
<g id="&#233;&#141;&#165;&#230;&#131;&#167;&#231;&#156;&#176;_1" clip-path="url(#clip0_1801_2311)">
<g id="Group 7" style="mix-blend-mode:screen" filter="url(#filter2_f_1801_2311)">
<path id="Vector" d="M27.33 31.7598C26.81 30.8598 26.33 29.9498 25.89 29.1098C26.75 29.5298 27.68 30.1098 28.53 30.5598C31.22 32.1198 33.77 33.5598 35.07 32.3098L37.28 30.0998C38.43 28.7698 36.99 26.2898 35.46 23.6498C34.94 22.7598 34.41 21.8398 34.01 21.0098C34.87 21.4198 35.81 22.0098 36.66 22.4498C39.35 24.0198 41.9 25.4498 43.2 24.1998C44.5 22.9498 43.12 20.2398 41.56 17.5398L41.39 17.2598C41.3249 17.1446 41.2167 17.0599 41.0892 17.0243C40.9618 16.9887 40.8254 17.0051 40.71 17.0698C40.5958 17.1385 40.513 17.2492 40.4793 17.3782C40.4457 17.5071 40.4639 17.6441 40.53 17.7598L40.69 18.0398C41.19 18.8998 41.69 19.8298 42.14 20.6898C41.3 20.2898 40.39 19.7598 39.49 19.2398C36.79 17.6698 34.25 16.2398 32.95 17.4998L30.72 19.7298C29.47 21.0298 30.9 23.5398 32.47 26.2698C32.96 27.1198 33.47 28.0498 33.91 28.9098C33.08 28.5098 32.16 27.9898 31.26 27.4698C28.57 25.8998 26.02 24.4198 24.72 25.7198L22.47 27.9498C21.17 29.2498 22.65 31.7998 24.22 34.4898C24.72 35.3398 25.22 36.2798 25.67 37.1398C24.83 36.7398 23.92 36.2198 23.02 35.6898C20.32 34.1298 17.78 32.6898 16.48 33.9498C15.18 35.2098 16.65 37.7998 18.22 40.4898L18.49 40.9498C18.5336 41.0254 18.5963 41.0882 18.6717 41.1321C18.7471 41.176 18.8327 41.1993 18.92 41.1998C19.0068 41.1991 19.0923 41.1786 19.17 41.1398C19.2842 41.0711 19.367 40.9605 19.4006 40.8315C19.4343 40.7026 19.4161 40.5656 19.35 40.4498L19.08 39.9898C18.59 39.1398 18.08 38.1998 17.64 37.3298C18.47 37.7298 19.39 38.2598 20.29 38.7798C22.29 39.9298 24.15 41.0298 25.53 41.0298C25.7693 41.0393 26.008 40.9999 26.2315 40.9139C26.4551 40.8279 26.6587 40.6972 26.83 40.5298L29.16 38.1998C29.1959 38.1629 29.2232 38.1185 29.24 38.0698C30.21 36.7198 28.81 34.3098 27.33 31.7598ZM38.99 20.1098C40.1641 20.8312 41.3909 21.4629 42.66 21.9998C42.84 22.6098 42.86 23.0998 42.59 23.3698C41.84 24.1298 39.3 22.6498 37.26 21.4698C35.8213 20.5045 34.2429 19.7659 32.58 19.2798L33.66 18.1998C34.41 17.4498 36.95 18.9198 38.99 20.1098ZM31.47 20.4298C31.73 20.1698 32.23 20.1898 32.84 20.3698C33.3788 21.638 34.0105 22.8647 34.73 24.0398C35.91 26.0398 37.37 28.5898 36.64 29.3498L35.52 30.4398C35.0295 28.7786 34.2912 27.2008 33.33 25.7598C32.14 23.7298 30.67 21.1898 31.47 20.4298ZM30.8 28.3298C31.972 29.0548 33.1991 29.6867 34.47 30.2198C34.64 30.8298 34.66 31.3298 34.4 31.5998C33.64 32.3498 31.1 30.8798 29.07 29.6898C27.6144 28.7386 26.023 28.0137 24.35 27.5398L25.47 26.4298C26.18 25.6698 28.72 27.1498 30.76 28.3298H30.8ZM23.24 28.6598C23.51 28.3898 24 28.4098 24.62 28.5898C25.1359 29.8614 25.7546 31.0888 26.47 32.2598C27.65 34.2598 29.13 36.8398 28.37 37.5898L27.29 38.6698C26.8039 37.0069 26.0653 35.4285 25.1 33.9898C23.92 31.9498 22.47 29.4098 23.2 28.6598H23.24ZM20.85 37.9198C19.6769 37.1906 18.4461 36.5584 17.17 36.0298C17 35.4198 16.98 34.9198 17.24 34.6598C18 33.8998 20.54 35.3698 22.58 36.5598C23.7519 37.2851 24.979 37.917 26.25 38.4498C26.43 39.0598 26.45 39.5598 26.18 39.8198C25.39 40.5398 22.85 39.0998 20.81 37.9198H20.85Z" fill="#B9F9E8"/>
<path id="Vector_2" d="M45.54 31.8093C44.8774 31.1842 44.0009 30.8359 43.09 30.8359C42.179 30.8359 41.3025 31.1842 40.64 31.8093L38.94 33.5393C38.8458 33.6335 38.7929 33.7612 38.7929 33.8943C38.7929 34.0275 38.8458 34.1552 38.94 34.2493C39.0341 34.3435 39.1618 34.3964 39.295 34.3964C39.4281 34.3964 39.5558 34.3435 39.65 34.2493L41.35 32.5493C41.8188 32.1019 42.4419 31.8522 43.09 31.8522C43.738 31.8522 44.3612 32.1019 44.83 32.5493C45.0586 32.7778 45.2399 33.049 45.3636 33.3476C45.4873 33.6461 45.551 33.9661 45.551 34.2893C45.551 34.6125 45.4873 34.9325 45.3636 35.2311C45.2399 35.5296 45.0586 35.8009 44.83 36.0293L41.9 38.9593L38.47 35.4693C38.3764 35.3694 38.2634 35.2898 38.1378 35.2353C38.0122 35.1809 37.8768 35.1528 37.74 35.1528C37.6031 35.1528 37.4677 35.1809 37.3421 35.2353C37.2166 35.2898 37.1035 35.3694 37.01 35.4693L34.11 38.3693C33.4602 39.0191 33.0952 39.9004 33.0952 40.8193C33.0952 41.7382 33.4602 42.6195 34.11 43.2693C34.7598 43.9191 35.641 44.2841 36.56 44.2841C37.4789 44.2841 38.3602 43.9191 39.01 43.2693L45.57 36.7093C46.2161 36.0576 46.5786 35.177 46.5786 34.2593C46.5786 33.3416 46.2161 32.4611 45.57 31.8093H45.54ZM38.27 42.5393C37.8012 42.9868 37.178 43.2365 36.53 43.2365C35.8819 43.2365 35.2588 42.9868 34.79 42.5393C34.5614 42.3109 34.3801 42.0396 34.2563 41.7411C34.1326 41.4425 34.0689 41.1225 34.0689 40.7993C34.0689 40.4761 34.1326 40.1561 34.2563 39.8576C34.3801 39.559 34.5614 39.2878 34.79 39.0593L37.79 36.1593L41.25 39.6093L38.27 42.5393Z" fill="#B9F9E8"/>
</g>
<g id="Group 8">
<path id="Vector_3" d="M27.33 31.7598C26.81 30.8598 26.33 29.9498 25.89 29.1098C26.75 29.5298 27.68 30.1098 28.53 30.5598C31.22 32.1198 33.77 33.5598 35.07 32.3098L37.28 30.0998C38.43 28.7698 36.99 26.2898 35.46 23.6498C34.94 22.7598 34.41 21.8398 34.01 21.0098C34.87 21.4198 35.81 22.0098 36.66 22.4498C39.35 24.0198 41.9 25.4498 43.2 24.1998C44.5 22.9498 43.12 20.2398 41.56 17.5398L41.39 17.2598C41.3249 17.1446 41.2167 17.0599 41.0892 17.0243C40.9618 16.9887 40.8254 17.0051 40.71 17.0698C40.5958 17.1385 40.513 17.2492 40.4793 17.3782C40.4457 17.5071 40.4639 17.6441 40.53 17.7598L40.69 18.0398C41.19 18.8998 41.69 19.8298 42.14 20.6898C41.3 20.2898 40.39 19.7598 39.49 19.2398C36.79 17.6698 34.25 16.2398 32.95 17.4998L30.72 19.7298C29.47 21.0298 30.9 23.5398 32.47 26.2698C32.96 27.1198 33.47 28.0498 33.91 28.9098C33.08 28.5098 32.16 27.9898 31.26 27.4698C28.57 25.8998 26.02 24.4198 24.72 25.7198L22.47 27.9498C21.17 29.2498 22.65 31.7998 24.22 34.4898C24.72 35.3398 25.22 36.2798 25.67 37.1398C24.83 36.7398 23.92 36.2198 23.02 35.6898C20.32 34.1298 17.78 32.6898 16.48 33.9498C15.18 35.2098 16.65 37.7998 18.22 40.4898L18.49 40.9498C18.5336 41.0254 18.5963 41.0882 18.6717 41.1321C18.7471 41.176 18.8327 41.1993 18.92 41.1998C19.0068 41.1991 19.0923 41.1786 19.17 41.1398C19.2842 41.0711 19.367 40.9605 19.4006 40.8315C19.4343 40.7026 19.4161 40.5656 19.35 40.4498L19.08 39.9898C18.59 39.1398 18.08 38.1998 17.64 37.3298C18.47 37.7298 19.39 38.2598 20.29 38.7798C22.29 39.9298 24.15 41.0298 25.53 41.0298C25.7693 41.0393 26.008 40.9999 26.2315 40.9139C26.4551 40.8279 26.6587 40.6972 26.83 40.5298L29.16 38.1998C29.1959 38.1629 29.2232 38.1185 29.24 38.0698C30.21 36.7198 28.81 34.3098 27.33 31.7598ZM38.99 20.1098C40.1641 20.8312 41.3909 21.4629 42.66 21.9998C42.84 22.6098 42.86 23.0998 42.59 23.3698C41.84 24.1298 39.3 22.6498 37.26 21.4698C35.8213 20.5045 34.2429 19.7659 32.58 19.2798L33.66 18.1998C34.41 17.4498 36.95 18.9198 38.99 20.1098ZM31.47 20.4298C31.73 20.1698 32.23 20.1898 32.84 20.3698C33.3788 21.638 34.0105 22.8647 34.73 24.0398C35.91 26.0398 37.37 28.5898 36.64 29.3498L35.52 30.4398C35.0295 28.7786 34.2912 27.2008 33.33 25.7598C32.14 23.7298 30.67 21.1898 31.47 20.4298ZM30.8 28.3298C31.972 29.0548 33.1991 29.6867 34.47 30.2198C34.64 30.8298 34.66 31.3298 34.4 31.5998C33.64 32.3498 31.1 30.8798 29.07 29.6898C27.6144 28.7386 26.023 28.0137 24.35 27.5398L25.47 26.4298C26.18 25.6698 28.72 27.1498 30.76 28.3298H30.8ZM23.24 28.6598C23.51 28.3898 24 28.4098 24.62 28.5898C25.1359 29.8614 25.7546 31.0888 26.47 32.2598C27.65 34.2598 29.13 36.8398 28.37 37.5898L27.29 38.6698C26.8039 37.0069 26.0653 35.4285 25.1 33.9898C23.92 31.9498 22.47 29.4098 23.2 28.6598H23.24ZM20.85 37.9198C19.6769 37.1906 18.4461 36.5584 17.17 36.0298C17 35.4198 16.98 34.9198 17.24 34.6598C18 33.8998 20.54 35.3698 22.58 36.5598C23.7519 37.2851 24.979 37.917 26.25 38.4498C26.43 39.0598 26.45 39.5598 26.18 39.8198C25.39 40.5398 22.85 39.0998 20.81 37.9198H20.85Z" fill="#C2FEFE"/>
<path id="Vector_4" d="M45.54 31.8093C44.8774 31.1842 44.0009 30.8359 43.09 30.8359C42.179 30.8359 41.3025 31.1842 40.64 31.8093L38.94 33.5393C38.8458 33.6335 38.7929 33.7612 38.7929 33.8943C38.7929 34.0275 38.8458 34.1552 38.94 34.2493C39.0341 34.3435 39.1618 34.3964 39.295 34.3964C39.4281 34.3964 39.5558 34.3435 39.65 34.2493L41.35 32.5493C41.8188 32.1019 42.4419 31.8522 43.09 31.8522C43.738 31.8522 44.3612 32.1019 44.83 32.5493C45.0586 32.7778 45.2399 33.049 45.3636 33.3476C45.4873 33.6461 45.551 33.9661 45.551 34.2893C45.551 34.6125 45.4873 34.9325 45.3636 35.2311C45.2399 35.5296 45.0586 35.8009 44.83 36.0293L41.9 38.9593L38.47 35.4693C38.3764 35.3694 38.2634 35.2898 38.1378 35.2353C38.0122 35.1809 37.8768 35.1528 37.74 35.1528C37.6031 35.1528 37.4677 35.1809 37.3421 35.2353C37.2166 35.2898 37.1035 35.3694 37.01 35.4693L34.11 38.3693C33.4602 39.0191 33.0952 39.9004 33.0952 40.8193C33.0952 41.7382 33.4602 42.6195 34.11 43.2693C34.7598 43.9191 35.641 44.2841 36.56 44.2841C37.4789 44.2841 38.3602 43.9191 39.01 43.2693L45.57 36.7093C46.2161 36.0576 46.5786 35.177 46.5786 34.2593C46.5786 33.3416 46.2161 32.4611 45.57 31.8093H45.54ZM38.27 42.5393C37.8012 42.9868 37.178 43.2365 36.53 43.2365C35.8819 43.2365 35.2588 42.9868 34.79 42.5393C34.5614 42.3109 34.3801 42.0396 34.2563 41.7411C34.1326 41.4425 34.0689 41.1225 34.0689 40.7993C34.0689 40.4761 34.1326 40.1561 34.2563 39.8576C34.3801 39.559 34.5614 39.2878 34.79 39.0593L37.79 36.1593L41.25 39.6093L38.27 42.5393Z" fill="#C2FEFE"/>
</g>
</g>
</g>
<defs>
<filter id="filter0_b_1801_2311" x="-1" y="-1" width="64" height="64" filterUnits="userSpaceOnUse" color-interpolation-filters="sRGB">
<feFlood flood-opacity="0" result="BackgroundImageFix"/>
<feGaussianBlur in="BackgroundImageFix" stdDeviation="3"/>
<feComposite in2="SourceAlpha" operator="in" result="effect1_backgroundBlur_1801_2311"/>
<feBlend mode="normal" in="SourceGraphic" in2="effect1_backgroundBlur_1801_2311" result="shape"/>
</filter>
<filter id="filter1_f_1801_2311" x="0" y="0" width="62" height="62" filterUnits="userSpaceOnUse" color-interpolation-filters="sRGB">
<feFlood flood-opacity="0" result="BackgroundImageFix"/>
<feBlend mode="normal" in="SourceGraphic" in2="BackgroundImageFix" result="shape"/>
<feGaussianBlur stdDeviation="1" result="effect1_foregroundBlur_1801_2311"/>
</filter>
<filter id="filter2_f_1801_2311" x="13.9802" y="15.0059" width="34.5983" height="31.2773" filterUnits="userSpaceOnUse" color-interpolation-filters="sRGB">
<feFlood flood-opacity="0" result="BackgroundImageFix"/>
<feBlend mode="normal" in="SourceGraphic" in2="BackgroundImageFix" result="shape"/>
<feGaussianBlur stdDeviation="1" result="effect1_foregroundBlur_1801_2311"/>
</filter>
<radialGradient id="paint0_radial_1801_2311" cx="0" cy="0" r="1" gradientUnits="userSpaceOnUse" gradientTransform="translate(31 31) rotate(90) scale(26)">
<stop offset="0.666667" stop-opacity="0"/>
<stop offset="1" stop-color="#79FFFF" stop-opacity="0.7"/>
<stop offset="1" stop-color="#79FFFF" stop-opacity="0.3"/>
</radialGradient>
<clipPath id="clip0_1801_2311">
<rect width="30.55" height="27.28" fill="white" transform="translate(16 17)"/>
</clipPath>
</defs>
</svg>
