<svg width="66" height="66" viewBox="0 0 66 66" fill="none" xmlns="http://www.w3.org/2000/svg">
<g id="&#233;&#128;&#154;&#228;&#191;&#161;&#232;&#161;&#140;&#228;&#184;&#154; &#230;&#130;&#172;&#230;&#181;&#174;&#230;&#128;&#129;">
<g id="Ellipse 55" filter="url(#filter0_b_1801_2322)">
<circle cx="33" cy="33" r="26" fill="url(#paint0_radial_1801_2322)"/>
<circle cx="33" cy="33" r="25.85" stroke="#0173FE" stroke-width="0.3"/>
</g>
<g id="Ellipse 56" style="mix-blend-mode:screen" filter="url(#filter1_f_1801_2322)">
<circle cx="33" cy="33" r="28.5" stroke="#73E6FF"/>
</g>
<circle id="Ellipse 57" cx="33" cy="33" r="28.5" stroke="#0173FE"/>
<g id="&#233;&#141;&#165;&#230;&#131;&#167;&#231;&#156;&#176;_1" clip-path="url(#clip0_1801_2322)">
<g id="blur" style="mix-blend-mode:color-dodge" filter="url(#filter2_f_1801_2322)">
<path d="M43.4322 48.3308L38.7826 38.5325C41.2078 37.2285 43.1314 35.1437 44.2474 32.6095C45.3635 30.0754 45.6081 27.2375 44.9421 24.5469C44.2762 21.8564 42.738 19.4678 40.5722 17.761C38.4064 16.0541 35.7373 15.127 32.9893 15.127C30.2414 15.127 27.5723 16.0541 25.4065 17.761C23.2407 19.4678 21.7025 21.8564 21.0366 24.5469C20.3706 27.2375 20.6152 30.0754 21.7313 32.6095C22.8473 35.1437 24.7709 37.2285 27.1961 38.5325L21.5324 50.4429L22.5033 50.9111L23.2909 49.2345H42.7094L43.5077 50.922L44.4895 50.4538L43.6156 48.6139C43.5839 48.5032 43.52 48.4046 43.4322 48.3308ZM34.3918 29.2024C34.727 28.9131 34.9662 28.5271 35.0774 28.0963C35.1885 27.6656 35.1661 27.2109 35.0133 26.7933C34.8605 26.3758 34.5846 26.0156 34.2227 25.7611C33.8608 25.5067 33.4304 25.3703 32.9893 25.3703C32.5483 25.3703 32.1179 25.5067 31.756 25.7611C31.3941 26.0156 31.1182 26.3758 30.9654 26.7933C30.8126 27.2109 30.7902 27.6656 30.9013 28.0963C31.0125 28.5271 31.2517 28.9131 31.5869 29.2024L30.5728 31.3798C29.7582 30.8527 29.1347 30.0734 28.7958 29.1586C28.4569 28.2439 28.4208 27.2429 28.693 26.3057C28.9651 25.3686 29.5309 24.5456 30.3054 23.9601C31.08 23.3747 32.0216 23.0583 32.9893 23.0583C33.9571 23.0583 34.8987 23.3747 35.6733 23.9601C36.4478 24.5456 37.0136 25.3686 37.2857 26.3057C37.5579 27.2429 37.5218 28.2439 37.1829 29.1586C36.844 30.0734 36.2205 30.8527 35.4059 31.3798L34.3918 29.2024ZM32.6549 29.4637H33.3346L35.1578 33.3068L33.0001 34.2975L30.8425 33.2959L32.6549 29.4637ZM36.161 36.9539L33.0001 38.3039L29.8392 36.9539L33.0001 35.4951L36.161 36.9539ZM34.2947 34.8963L35.6109 34.2975L36.3337 35.8435L34.2947 34.8963ZM35.8698 32.3161C36.9101 31.6812 37.7159 30.7201 38.164 29.5796C38.6122 28.4391 38.678 27.1819 38.3515 26.0001C38.0249 24.8182 37.324 23.7768 36.3557 23.0348C35.3874 22.2929 34.2051 21.8912 32.9893 21.8912C31.7736 21.8912 30.5913 22.2929 29.623 23.0348C28.6547 23.7768 27.9538 24.8182 27.6272 26.0001C27.3007 27.1819 27.3665 28.4391 27.8147 29.5796C28.2628 30.7201 29.0686 31.6812 30.1089 32.3161L29.2675 34.1124C27.8164 33.283 26.6782 31.9921 26.0305 30.4412C25.3828 28.8903 25.262 27.1667 25.687 25.5393C26.112 23.9119 27.0589 22.4722 28.3799 21.4449C29.7009 20.4176 31.3217 19.8605 32.9893 19.8605C34.657 19.8605 36.2778 20.4176 37.5988 21.4449C38.9198 22.4722 39.8667 23.9119 40.2917 25.5393C40.7167 27.1667 40.5959 28.8903 39.9482 30.4412C39.3005 31.9921 38.1623 33.283 36.7112 34.1124L35.8698 32.3161ZM30.3678 34.2866L31.7056 34.8963L29.6235 35.8543L30.3678 34.2866ZM28.7604 37.6834L31.6193 38.9027L27.304 40.7317L28.7604 37.6834ZM33.0001 39.4906L38.3942 41.7333L33.0541 43.9107L27.714 41.7333L33.0001 39.4906ZM34.381 38.9027L37.2075 37.6943L38.6423 40.7208L34.381 38.9027ZM21.7589 27.5149C21.7541 25.5071 22.2774 23.534 23.2754 21.797C24.2734 20.0601 25.7103 18.6215 27.4394 17.6283C29.1685 16.6351 31.1278 16.1228 33.1173 16.1437C35.1068 16.1647 37.0551 16.7181 38.7633 17.7474C40.4715 18.7768 41.8784 20.2453 42.8403 22.0029C43.8021 23.7604 44.2846 25.7441 44.2383 27.7514C44.1919 29.7587 43.6186 31.7176 42.5767 33.4281C41.5348 35.1386 40.0617 36.5394 38.3079 37.4874L37.995 36.8124C37.9787 36.7543 37.9532 36.6991 37.9195 36.6491L37.1751 35.0814C38.8477 34.1453 40.1648 32.675 40.9195 30.9015C41.6742 29.1279 41.8238 27.1517 41.3447 25.2831C40.8656 23.4145 39.785 21.7594 38.2727 20.5778C36.7604 19.3962 34.9019 18.7551 32.9893 18.7551C31.0768 18.7551 29.2183 19.3962 27.706 20.5778C26.1937 21.7594 25.1131 23.4145 24.634 25.2831C24.1549 27.1517 24.3045 29.1279 25.0592 30.9015C25.8139 32.675 27.131 34.1453 28.8036 35.0814L27.6708 37.4874C25.8897 36.513 24.4011 35.0731 23.361 33.3185C22.3209 31.564 21.7675 29.5594 21.7589 27.5149ZM26.5273 42.4736L31.5977 44.5531L24.046 47.6559L26.5273 42.4736ZM25.7398 48.1458L33.0001 45.141L40.2821 48.1458H25.7398ZM34.4457 44.5531L39.473 42.4736L41.9111 47.6341L34.4457 44.5531Z" fill="#D5E4F3"/>
</g>
<g id="origin" filter="url(#filter3_d_1801_2322)">
<path d="M43.4429 48.3308L38.7932 38.5325C41.2184 37.2285 43.142 35.1437 44.2581 32.6095C45.3742 30.0754 45.6187 27.2375 44.9528 24.5469C44.2868 21.8564 42.7487 19.4678 40.5829 17.761C38.4171 16.0541 35.748 15.127 33 15.127C30.252 15.127 27.5829 16.0541 25.4171 17.761C23.2513 19.4678 21.7132 21.8564 21.0472 24.5469C20.3813 27.2375 20.6258 30.0754 21.7419 32.6095C22.858 35.1437 24.7816 37.2285 27.2068 38.5325L21.543 50.4429L22.514 50.9111L23.3015 49.2345H42.7201L43.5184 50.922L44.5001 50.4538L43.6263 48.6139C43.5945 48.5032 43.5306 48.4046 43.4429 48.3308ZM34.4025 29.2024C34.7376 28.9131 34.9769 28.5271 35.088 28.0963C35.1991 27.6656 35.1768 27.2109 35.024 26.7933C34.8712 26.3758 34.5953 26.0156 34.2334 25.7611C33.8715 25.5067 33.441 25.3703 33 25.3703C32.559 25.3703 32.1285 25.5067 31.7666 25.7611C31.4047 26.0156 31.1288 26.3758 30.976 26.7933C30.8232 27.2109 30.8009 27.6656 30.912 28.0963C31.0231 28.5271 31.2624 28.9131 31.5975 29.2024L30.5835 31.3798C29.7688 30.8527 29.1454 30.0734 28.8065 29.1586C28.4676 28.2439 28.4315 27.2429 28.7036 26.3057C28.9758 25.3686 29.5415 24.5456 30.3161 23.9601C31.0906 23.3747 32.0323 23.0583 33 23.0583C33.9677 23.0583 34.9094 23.3747 35.6839 23.9601C36.4585 24.5456 37.0242 25.3686 37.2964 26.3057C37.5685 27.2429 37.5324 28.2439 37.1935 29.1586C36.8547 30.0734 36.2312 30.8527 35.4165 31.3798L34.4025 29.2024ZM32.6656 29.4637H33.3452L35.1684 33.3068L33.0108 34.2975L30.8532 33.2959L32.6656 29.4637ZM36.1717 36.9539L33.0108 38.3039L29.8499 36.9539L33.0108 35.4951L36.1717 36.9539ZM34.3054 34.8963L35.6215 34.2975L36.3443 35.8435L34.3054 34.8963ZM35.8804 32.3161C36.9208 31.6812 37.7266 30.7201 38.1747 29.5796C38.6228 28.4391 38.6886 27.1819 38.3621 26.0001C38.0356 24.8182 37.3346 23.7768 36.3664 23.0348C35.3981 22.2929 34.2158 21.8912 33 21.8912C31.7842 21.8912 30.6019 22.2929 29.6336 23.0348C28.6654 23.7768 27.9644 24.8182 27.6379 26.0001C27.3114 27.1819 27.3772 28.4391 27.8253 29.5796C28.2734 30.7201 29.0792 31.6812 30.1196 32.3161L29.2781 34.1124C27.827 33.283 26.6888 31.9921 26.0411 30.4412C25.3934 28.8903 25.2727 27.1667 25.6977 25.5393C26.1227 23.9119 27.0695 22.4722 28.3905 21.4449C29.7115 20.4176 31.3323 19.8605 33 19.8605C34.6677 19.8605 36.2885 20.4176 37.6095 21.4449C38.9305 22.4722 39.8773 23.9119 40.3023 25.5393C40.7273 27.1667 40.6066 28.8903 39.9589 30.4412C39.3112 31.9921 38.173 33.283 36.7219 34.1124L35.8804 32.3161ZM30.3785 34.2866L31.7162 34.8963L29.6341 35.8543L30.3785 34.2866ZM28.7711 37.6834L31.6299 38.9027L27.3147 40.7317L28.7711 37.6834ZM33.0108 39.4906L38.4048 41.7333L33.0647 43.9107L27.7246 41.7333L33.0108 39.4906ZM34.3917 38.9027L37.2181 37.6943L38.653 40.7208L34.3917 38.9027ZM21.7696 27.5149C21.7648 25.5071 22.2881 23.534 23.286 21.797C24.284 20.0601 25.7209 18.6215 27.45 17.6283C29.1791 16.6351 31.1385 16.1228 33.1279 16.1437C35.1174 16.1647 37.0657 16.7181 38.7739 17.7474C40.4821 18.7768 41.889 20.2453 42.8509 22.0029C43.8128 23.7604 44.2952 25.7441 44.2489 27.7514C44.2026 29.7587 43.6292 31.7176 42.5873 33.4281C41.5454 35.1386 40.0724 36.5394 38.3185 37.4874L38.0057 36.8124C37.9893 36.7543 37.9638 36.6991 37.9302 36.6491L37.1858 35.0814C38.8584 34.1453 40.1755 32.675 40.9302 30.9015C41.6849 29.1279 41.8344 27.1517 41.3553 25.2831C40.8763 23.4145 39.7957 21.7594 38.2834 20.5778C36.771 19.3962 34.9126 18.7551 33 18.7551C31.0874 18.7551 29.229 19.3962 27.7166 20.5778C26.2043 21.7594 25.1237 23.4145 24.6447 25.2831C24.1656 27.1517 24.3151 29.1279 25.0698 30.9015C25.8245 32.675 27.1416 34.1453 28.8142 35.0814L27.6815 37.4874C25.9004 36.513 24.4118 35.0731 23.3717 33.3185C22.3316 31.564 21.7782 29.5594 21.7696 27.5149ZM26.5379 42.4736L31.6083 44.5531L24.0567 47.6559L26.5379 42.4736ZM25.7504 48.1458L33.0108 45.141L40.2928 48.1458H25.7504ZM34.4564 44.5531L39.4836 42.4736L41.9218 47.6341L34.4564 44.5531Z" fill="#B6CEEC"/>
</g>
</g>
</g>
<defs>
<filter id="filter0_b_1801_2322" x="3" y="3" width="60" height="60" filterUnits="userSpaceOnUse" color-interpolation-filters="sRGB">
<feFlood flood-opacity="0" result="BackgroundImageFix"/>
<feGaussianBlur in="BackgroundImageFix" stdDeviation="2"/>
<feComposite in2="SourceAlpha" operator="in" result="effect1_backgroundBlur_1801_2322"/>
<feBlend mode="normal" in="SourceGraphic" in2="effect1_backgroundBlur_1801_2322" result="shape"/>
</filter>
<filter id="filter1_f_1801_2322" x="0" y="0" width="66" height="66" filterUnits="userSpaceOnUse" color-interpolation-filters="sRGB">
<feFlood flood-opacity="0" result="BackgroundImageFix"/>
<feBlend mode="normal" in="SourceGraphic" in2="BackgroundImageFix" result="shape"/>
<feGaussianBlur stdDeviation="2" result="effect1_foregroundBlur_1801_2322"/>
</filter>
<filter id="filter2_f_1801_2322" x="18.6693" y="13.127" width="28.64" height="39.7949" filterUnits="userSpaceOnUse" color-interpolation-filters="sRGB">
<feFlood flood-opacity="0" result="BackgroundImageFix"/>
<feBlend mode="normal" in="SourceGraphic" in2="BackgroundImageFix" result="shape"/>
<feGaussianBlur stdDeviation="1" result="effect1_foregroundBlur_1801_2322"/>
</filter>
<filter id="filter3_d_1801_2322" x="4.67999" y="-0.873047" width="56.64" height="67.7949" filterUnits="userSpaceOnUse" color-interpolation-filters="sRGB">
<feFlood flood-opacity="0" result="BackgroundImageFix"/>
<feColorMatrix in="SourceAlpha" type="matrix" values="0 0 0 0 0 0 0 0 0 0 0 0 0 0 0 0 0 0 127 0" result="hardAlpha"/>
<feOffset/>
<feGaussianBlur stdDeviation="8"/>
<feComposite in2="hardAlpha" operator="out"/>
<feColorMatrix type="matrix" values="0 0 0 0 0.00392157 0 0 0 0 0.45098 0 0 0 0 0.996078 0 0 0 1 0"/>
<feBlend mode="normal" in2="BackgroundImageFix" result="effect1_dropShadow_1801_2322"/>
<feBlend mode="normal" in="SourceGraphic" in2="effect1_dropShadow_1801_2322" result="shape"/>
</filter>
<radialGradient id="paint0_radial_1801_2322" cx="0" cy="0" r="1" gradientUnits="userSpaceOnUse" gradientTransform="translate(33 33) rotate(90) scale(26)">
<stop offset="0.75" stop-color="#0173FE" stop-opacity="0"/>
<stop offset="1" stop-color="#0173FE" stop-opacity="0.7"/>
</radialGradient>
<clipPath id="clip0_1801_2322">
<rect width="24.64" height="35.84" fill="white" transform="translate(20.68 15.0801)"/>
</clipPath>
</defs>
</svg>
