<svg width="62" height="62" viewBox="0 0 62 62" fill="none" xmlns="http://www.w3.org/2000/svg">
<g id="&#231;&#148;&#181;&#229;&#138;&#155;&#232;&#161;&#140;&#228;&#184;&#154; &#230;&#130;&#172;&#230;&#181;&#174;&#230;&#128;&#129;">
<g id="Group 5">
<g id="Ellipse 55" filter="url(#filter0_b_1801_2332)">
<circle cx="31" cy="31" r="26" fill="url(#paint0_radial_1801_2332)" fill-opacity="0.6"/>
<circle cx="31" cy="31" r="25.85" stroke="#40F19C" stroke-width="0.3"/>
</g>
<g id="Ellipse 56" filter="url(#filter1_f_1801_2332)">
<circle cx="31" cy="31" r="28.5" stroke="#40F19C"/>
</g>
<circle id="Ellipse 57" cx="31" cy="31" r="28.5" stroke="#40F19C"/>
</g>
<g id="&#233;&#141;&#165;&#230;&#131;&#167;&#231;&#156;&#176;_1" clip-path="url(#clip0_1801_2332)">
<g id="Vector" style="mix-blend-mode:screen" filter="url(#filter2_f_1801_2332)">
<path d="M39.3041 26.3771H34.8531V21.374H40.8335V23.5453C40.8335 23.678 40.8852 23.8053 40.9771 23.8991C41.069 23.9929 41.1937 24.0457 41.3237 24.0457C41.453 24.0431 41.5762 23.9896 41.6676 23.8963C41.759 23.803 41.8114 23.6772 41.8139 23.5453V20.7136L37.108 15H24.1669L20.2453 20.7436V23.5754C20.2453 23.7081 20.2969 23.8353 20.3889 23.9291C20.4808 24.023 20.6055 24.0757 20.7355 24.0757C20.8655 24.0757 20.9902 24.023 21.0821 23.9291C21.1741 23.8353 21.2257 23.7081 21.2257 23.5754V21.404H27.2061V26.4071H21.9316L18.01 32.1407V35.6429C18.01 35.7756 18.0617 35.9029 18.1536 35.9967C18.2455 36.0905 18.3702 36.1432 18.5002 36.1432C18.6302 36.1432 18.7549 36.0905 18.8468 35.9967C18.9388 35.9029 18.9904 35.7756 18.9904 35.6429V32.7711H27.108L24.9512 45.9994H19.9512C19.8212 45.9994 19.6965 46.0521 19.6046 46.1459C19.5126 46.2397 19.461 46.367 19.461 46.4997C19.461 46.6324 19.5126 46.7596 19.6046 46.8535C19.6965 46.9473 19.8212 47 19.9512 47H42.108C42.2381 47 42.3627 46.9473 42.4547 46.8535C42.5466 46.7596 42.5982 46.6324 42.5982 46.4997C42.5982 46.367 42.5466 46.2397 42.4547 46.1459C42.3627 46.0521 42.2381 45.9994 42.108 45.9994H37.1375L34.9512 32.7711H43.0296V35.6429C43.0296 35.7756 43.0813 35.9029 43.1732 35.9967C43.2651 36.0905 43.3898 36.1432 43.5198 36.1432C43.6498 36.1432 43.7745 36.0905 43.8664 35.9967C43.9584 35.9029 44.01 35.7756 44.01 35.6429V32.0907L39.3041 26.3771ZM38.8433 27.3777L42.461 31.7705H34.8531V27.3777H38.8433ZM28.1473 31.7705V27.3777H33.8826V31.7705H28.1473ZM33.7061 32.7711L31.0296 36.8336L28.4022 32.7711H33.7061ZM29.0688 26.3771L33.8728 22.0144V26.3771H29.0688ZM40.2257 20.3734H34.8531V15.9706H36.6277L40.2257 20.3734ZM33.8629 20.3734H28.1473V15.9706H33.8728L33.8629 20.3734ZM21.6375 20.3734L24.6473 15.9706H27.1571V20.3734H21.6375ZM33.0688 21.374L28.1669 25.8468V21.404L33.0688 21.374ZM22.4316 27.3777H27.1669V31.7705H19.4218L22.4316 27.3777ZM27.9022 33.7717L30.461 37.7742L26.2061 44.3183L27.9022 33.7717ZM26.2747 45.9994L31.0296 38.6448L35.7845 45.9994H26.2747ZM31.6473 37.7442L34.1375 33.9118L35.8531 44.2483L31.6473 37.7442Z" fill="#B9F9E8"/>
</g>
<path id="Vector_2" d="M39.2941 26.3771H34.8431V21.374H40.8235V23.5453C40.8235 23.678 40.8752 23.8053 40.9671 23.8991C41.059 23.9929 41.1837 24.0457 41.3137 24.0457C41.4429 24.0431 41.5662 23.9896 41.6576 23.8963C41.749 23.803 41.8014 23.6772 41.8039 23.5453V20.7136L37.098 15H24.1569L20.2353 20.7436V23.5754C20.2353 23.7081 20.2869 23.8353 20.3789 23.9291C20.4708 24.023 20.5955 24.0757 20.7255 24.0757C20.8555 24.0757 20.9802 24.023 21.0721 23.9291C21.164 23.8353 21.2157 23.7081 21.2157 23.5754V21.404H27.1961V26.4071H21.9216L18 32.1407V35.6429C18 35.7756 18.0516 35.9029 18.1436 35.9967C18.2355 36.0905 18.3602 36.1432 18.4902 36.1432C18.6202 36.1432 18.7449 36.0905 18.8368 35.9967C18.9287 35.9029 18.9804 35.7756 18.9804 35.6429V32.7711H27.098L24.9412 45.9994H19.9412C19.8112 45.9994 19.6865 46.0521 19.5946 46.1459C19.5026 46.2397 19.451 46.367 19.451 46.4997C19.451 46.6324 19.5026 46.7596 19.5946 46.8535C19.6865 46.9473 19.8112 47 19.9412 47H42.098C42.228 47 42.3527 46.9473 42.4447 46.8535C42.5366 46.7596 42.5882 46.6324 42.5882 46.4997C42.5882 46.367 42.5366 46.2397 42.4447 46.1459C42.3527 46.0521 42.228 45.9994 42.098 45.9994H37.1274L34.9412 32.7711H43.0196V35.6429C43.0196 35.7756 43.0713 35.9029 43.1632 35.9967C43.2551 36.0905 43.3798 36.1432 43.5098 36.1432C43.6398 36.1432 43.7645 36.0905 43.8564 35.9967C43.9484 35.9029 44 35.7756 44 35.6429V32.0907L39.2941 26.3771ZM38.8333 27.3777L42.451 31.7705H34.8431V27.3777H38.8333ZM28.1373 31.7705V27.3777H33.8725V31.7705H28.1373ZM33.6961 32.7711L31.0196 36.8336L28.3922 32.7711H33.6961ZM29.0588 26.3771L33.8627 22.0144V26.3771H29.0588ZM40.2157 20.3734H34.8431V15.9706H36.6176L40.2157 20.3734ZM33.8529 20.3734H28.1373V15.9706H33.8627L33.8529 20.3734ZM21.6275 20.3734L24.6373 15.9706H27.1471V20.3734H21.6275ZM33.0588 21.374L28.1569 25.8468V21.404L33.0588 21.374ZM22.4216 27.3777H27.1569V31.7705H19.4118L22.4216 27.3777ZM27.8922 33.7717L30.451 37.7742L26.1961 44.3183L27.8922 33.7717ZM26.2647 45.9994L31.0196 38.6448L35.7745 45.9994H26.2647ZM31.6373 37.7442L34.1275 33.9118L35.8431 44.2483L31.6373 37.7442Z" fill="#B9F9E8"/>
</g>
</g>
<defs>
<filter id="filter0_b_1801_2332" x="-1" y="-1" width="64" height="64" filterUnits="userSpaceOnUse" color-interpolation-filters="sRGB">
<feFlood flood-opacity="0" result="BackgroundImageFix"/>
<feGaussianBlur in="BackgroundImageFix" stdDeviation="3"/>
<feComposite in2="SourceAlpha" operator="in" result="effect1_backgroundBlur_1801_2332"/>
<feBlend mode="normal" in="SourceGraphic" in2="effect1_backgroundBlur_1801_2332" result="shape"/>
</filter>
<filter id="filter1_f_1801_2332" x="0" y="0" width="62" height="62" filterUnits="userSpaceOnUse" color-interpolation-filters="sRGB">
<feFlood flood-opacity="0" result="BackgroundImageFix"/>
<feBlend mode="normal" in="SourceGraphic" in2="BackgroundImageFix" result="shape"/>
<feGaussianBlur stdDeviation="1" result="effect1_foregroundBlur_1801_2332"/>
</filter>
<filter id="filter2_f_1801_2332" x="16.01" y="13" width="30" height="36" filterUnits="userSpaceOnUse" color-interpolation-filters="sRGB">
<feFlood flood-opacity="0" result="BackgroundImageFix"/>
<feBlend mode="normal" in="SourceGraphic" in2="BackgroundImageFix" result="shape"/>
<feGaussianBlur stdDeviation="1" result="effect1_foregroundBlur_1801_2332"/>
</filter>
<radialGradient id="paint0_radial_1801_2332" cx="0" cy="0" r="1" gradientUnits="userSpaceOnUse" gradientTransform="translate(31 31) rotate(90) scale(26)">
<stop offset="0.770833" stop-color="#40F19C" stop-opacity="0"/>
<stop offset="1" stop-color="#40F19C" stop-opacity="0.6"/>
</radialGradient>
<clipPath id="clip0_1801_2332">
<rect width="26" height="32" fill="white" transform="translate(18 15)"/>
</clipPath>
</defs>
</svg>
