<svg width="94" height="94" viewBox="0 0 94 94" fill="none" xmlns="http://www.w3.org/2000/svg">
<g id="&#229;&#164;&#169;&#229;&#183;&#165;&#233;&#135;&#143;&#229;&#173;&#144;&#229;&#164;&#167;&#232;&#132;&#145; &#230;&#130;&#172;&#230;&#181;&#174;&#230;&#128;&#129;">
<g id="Group 6">
<g id="Ellipse 55" filter="url(#filter0_b_1801_2364)">
<circle cx="47" cy="47" r="36" fill="url(#paint0_radial_1801_2364)"/>
<circle cx="47" cy="47" r="35.5" stroke="#EDFFE7"/>
</g>
<g id="Ellipse 56" style="mix-blend-mode:screen" filter="url(#filter1_f_1801_2364)">
<circle cx="47" cy="47" r="42" stroke="white" stroke-width="2"/>
</g>
<circle id="Ellipse 57" cx="47" cy="47" r="42" stroke="#EDFFE7" stroke-width="2"/>
</g>
<g id="&#233;&#141;&#165;&#230;&#131;&#167;&#231;&#156;&#176;_1" clip-path="url(#clip0_1801_2364)">
<g id="Vector" style="mix-blend-mode:screen" filter="url(#filter2_f_1801_2364)">
<path d="M70.0611 51.4744V45.1151C70.6693 44.9297 71.1908 44.5274 71.5295 43.9824C71.8682 43.4374 72.0013 42.7865 71.9041 42.1498C71.807 41.513 71.4862 40.9334 71.001 40.5178C70.5157 40.1023 69.8987 39.8788 69.2638 39.8886C68.9358 39.8937 68.6116 39.9595 68.3069 40.0828L65.1175 35.908C65.3466 35.5103 65.4677 35.058 65.4684 34.5973C65.4713 34.0574 65.3128 33.5292 65.0139 33.0825C64.7149 32.6358 64.2895 32.2916 63.7937 32.0953C63.298 31.899 62.7553 31.8599 62.2371 31.983C61.719 32.1061 61.2498 32.3858 60.8916 32.785L55.1347 29.8239V29.7106C55.1319 29.0756 54.906 28.4624 54.4978 27.9811C54.0896 27.4998 53.5256 27.1819 52.9072 27.0844C52.2888 26.987 51.6564 27.1164 51.1235 27.4494C50.5907 27.7824 50.1922 28.2973 49.9998 28.9015H41.5159C41.3332 28.2845 40.9367 27.7553 40.3996 27.4116C39.8625 27.0679 39.221 26.9329 38.5935 27.0314C37.9659 27.13 37.3947 27.4555 36.9852 27.9479C36.5756 28.4403 36.3554 29.0663 36.365 29.7106C36.365 29.8077 36.365 29.8886 36.365 29.9857L32.761 31.7818C32.2826 31.3478 31.6645 31.1061 31.0228 31.1022C30.322 31.1064 29.6511 31.3908 29.1555 31.8936C28.66 32.3964 28.3798 33.0772 28.3756 33.7883C28.3778 34.2118 28.4818 34.6283 28.6786 35.0019L25.3616 39.3061C25.1496 39.2813 24.9356 39.2813 24.7237 39.3061C24.0979 39.309 23.4936 39.5381 23.0192 39.9523C22.5449 40.3666 22.2316 40.9388 22.1355 41.5663C22.0395 42.1938 22.167 42.8355 22.4953 43.3762C22.8235 43.9168 23.3309 44.3211 23.9263 44.5164V48.9986C23.5131 49.1152 23.1343 49.3326 22.8227 49.6317C22.5112 49.9308 22.2765 50.3026 22.1389 50.7149C22.0014 51.1271 21.9653 51.5672 22.0337 51.9968C22.1021 52.4264 22.273 52.8325 22.5314 53.1799C22.7899 53.5272 23.1281 53.8051 23.5166 53.9894C23.9051 54.1738 24.3321 54.259 24.7605 54.2376C25.1889 54.2163 25.6056 54.089 25.9744 53.8668C26.3432 53.6447 26.6529 53.3344 26.8765 52.963L30.7836 53.6103C30.8509 54.1853 31.1029 54.7218 31.5007 55.1371C31.8984 55.5524 32.4197 55.8233 32.9843 55.908L33.4467 59.1443C33.1584 59.3907 32.9263 59.6978 32.7666 60.0442C32.6069 60.3907 32.5234 60.7683 32.5218 61.1508C32.5038 61.7254 32.669 62.2905 32.9929 62.7622C33.3168 63.2339 33.7822 63.5868 34.3196 63.7686C34.8571 63.9504 35.4381 63.9513 35.9762 63.7712C36.5142 63.5911 36.9806 63.2395 37.3059 62.7689L42.09 64.565C42.1524 65.2394 42.4636 65.8649 42.9612 66.3164C43.4589 66.7678 44.1062 67.0118 44.7736 66.9996C45.441 66.9873 46.0792 66.7196 46.5604 66.2502C47.0416 65.7807 47.3302 65.1441 47.3685 64.4679C47.3422 64.0914 47.2393 63.7246 47.0664 63.3904C46.8935 63.0562 46.6543 62.762 46.3638 62.5262L48.6443 59.2899L57.1759 62.0407C57.1759 62.7488 57.4531 63.4279 57.9466 63.9286C58.4401 64.4294 59.1093 64.7106 59.8072 64.7106C60.505 64.7106 61.1743 64.4294 61.6678 63.9286C62.1612 63.4279 62.4384 62.7488 62.4384 62.0407C62.4376 61.7765 62.3945 61.5142 62.3109 61.264L68.0359 56.4097C68.3561 56.6006 68.7125 56.7205 69.0817 56.7616C69.4508 56.8027 69.8244 56.7641 70.1778 56.6482C70.5312 56.5323 70.8564 56.3419 71.1321 56.0893C71.4078 55.8368 71.6276 55.5279 71.7772 55.1829C71.9268 54.838 72.0027 54.4648 71.9999 54.088C71.9972 53.7112 71.9159 53.3392 71.7613 52.9965C71.6067 52.6538 71.3824 52.3483 71.1031 52.0999C70.8239 51.8515 70.4959 51.6659 70.1409 51.5553L70.0611 51.4744ZM54.3055 51.9113L61.0829 48.1734L66.8877 53.0278C66.8811 53.0977 66.8811 53.1682 66.8877 53.2381L54.3055 51.9113ZM31.0706 52.0245L27.355 51.3935C27.3508 50.8302 27.1711 50.2827 26.8417 49.8293C26.5123 49.3759 26.0501 49.0399 25.521 48.8692V44.387C25.9227 44.2559 26.2874 44.0286 26.5844 43.7245C26.8814 43.4203 27.1019 43.0482 27.2274 42.6394L31.262 42.4938L32.2188 50.8757C31.727 51.1273 31.3254 51.5291 31.0706 52.0245ZM30.5603 36.3773L31.0706 40.8757L27.2114 41.0213C27.1141 40.691 26.9451 40.3869 26.7171 40.1313L29.8108 36.1022C30.0444 36.2342 30.2975 36.327 30.5603 36.3773ZM33.7497 50.633L32.8088 42.4291L38.183 42.2349C38.3672 42.681 38.6681 43.0676 39.0532 43.3528C39.4383 43.638 39.8928 43.8109 40.3677 43.853L40.9897 48.3999L35.2009 51.442C34.8256 51.0332 34.3358 50.7508 33.7976 50.633H33.7497ZM50.1752 30.8756L46.4595 34.4193L41.4681 30.6976V30.5197H49.9838C50.0299 30.6473 50.0944 30.7672 50.1752 30.8756ZM40.4475 31.9436L45.2316 35.5358L41.8189 38.7721C41.527 38.6278 41.2151 38.5296 40.894 38.4808L39.985 32.1701C40.1509 32.1222 40.3073 32.0455 40.4475 31.9436ZM61.4816 36.798C61.8975 37.0622 62.3783 37.2024 62.869 37.2025C63.2503 37.2013 63.6264 37.1128 63.9694 36.9436L67.0631 41.0375C66.7805 41.4749 66.6308 41.9869 66.6325 42.51C66.6443 42.7136 66.6818 42.9148 66.7441 43.1087L61.2903 46.1184L57.4151 42.8821C57.5675 42.5356 57.6489 42.1612 57.6543 41.7818C57.6466 41.359 57.5429 40.9437 57.3513 40.5682L61.4816 36.798ZM53.5081 50.3902C53.0206 49.9359 52.3839 49.6821 51.722 49.6783C51.3307 49.6811 50.9445 49.7694 50.5898 49.9372L47.4004 46.7009L53.1094 43.6912C53.5217 44.1092 54.0612 44.3734 54.6402 44.441C55.2193 44.5086 55.8038 44.3755 56.2988 44.0634L59.7274 46.9274L53.5081 50.3902ZM56.0277 41.7818C56.0277 42.065 55.9168 42.3367 55.7195 42.537C55.5221 42.7372 55.2544 42.8498 54.9752 42.8498C54.6961 42.8498 54.4284 42.7372 54.231 42.537C54.0336 42.3367 53.9227 42.065 53.9227 41.7818C53.9227 41.4986 54.0336 41.2269 54.231 41.0266C54.4284 40.8264 54.6961 40.7138 54.9752 40.7138C55.2544 40.7138 55.5221 40.8264 55.7195 41.0266C55.9168 41.2269 56.0277 41.4986 56.0277 41.7818ZM52.3759 42.2672L46.2522 45.5035L43.0628 42.2672C43.242 41.9116 43.335 41.5178 43.3339 41.1184C43.3196 40.6801 43.1991 40.2522 42.9831 39.8724L46.5871 36.442L52.4875 40.8595C52.3802 41.1553 52.321 41.4668 52.3121 41.7818C52.3918 42.0083 52.3918 42.1702 52.3918 42.332L52.3759 42.2672ZM40.6388 40.0019C40.8477 39.9987 41.0527 40.0586 41.2279 40.1739C41.403 40.2893 41.5404 40.455 41.6225 40.6498C41.7046 40.8446 41.7278 41.0599 41.689 41.2681C41.6502 41.4763 41.5512 41.6681 41.4047 41.8191C41.2581 41.9701 41.0706 42.0734 40.8661 42.1159C40.6615 42.1585 40.449 42.1383 40.2558 42.058C40.0625 41.9776 39.8972 41.8408 39.7808 41.6648C39.6645 41.4888 39.6023 41.2817 39.6023 41.0698C39.6181 40.8035 39.7317 40.5527 39.9206 40.3671C40.1094 40.1814 40.36 40.0742 40.6229 40.0666L40.6388 40.0019ZM44.7532 46.3449L42.5365 47.51L41.9943 43.5294L44.7532 46.3449ZM35.9664 52.8174L41.2289 50.0342L41.9465 55.2931L36.0142 53.3029C36.0154 53.1398 35.9994 52.977 35.9664 52.8174ZM42.8236 49.2414L46.013 47.6232L49.4097 51.1993C49.1929 51.5955 49.0777 52.0406 49.0748 52.4938C49.0824 52.8659 49.1689 53.232 49.3285 53.567C49.4882 53.9021 49.7171 54.1984 49.9998 54.4355L48.0223 57.2996L43.6688 55.8595L42.8236 49.2414ZM51.7699 53.4809C51.5617 53.4809 51.3582 53.4182 51.1851 53.3009C51.012 53.1835 50.8771 53.0167 50.7975 52.8216C50.7178 52.6264 50.697 52.4117 50.7376 52.2045C50.7782 51.9974 50.8784 51.8071 51.0256 51.6577C51.1728 51.5084 51.3604 51.4067 51.5645 51.3655C51.7687 51.3242 51.9803 51.3454 52.1726 51.4262C52.365 51.507 52.5293 51.6439 52.645 51.8196C52.7606 51.9952 52.8224 52.2017 52.8224 52.4129C52.8226 52.5588 52.7935 52.7031 52.7366 52.8371C52.6798 52.9711 52.5965 53.0918 52.4919 53.1919C52.3873 53.292 52.2636 53.3692 52.1285 53.4189C51.9933 53.4686 51.8496 53.4897 51.7061 53.4809H51.7699ZM68.004 51.7171L62.6298 47.2672L67.5574 44.5488C67.8369 44.8076 68.169 45.0009 68.5302 45.1151V51.4744C68.326 51.5351 68.1284 51.6164 67.9402 51.7171H68.004ZM70.3801 42.5747C70.3801 42.7859 70.3183 42.9924 70.2027 43.168C70.087 43.3436 69.9227 43.4805 69.7303 43.5614C69.538 43.6422 69.3264 43.6633 69.1222 43.6221C68.9181 43.5809 68.7305 43.4792 68.5833 43.3298C68.4361 43.1805 68.3359 42.9902 68.2953 42.783C68.2547 42.5759 68.2755 42.3611 68.3552 42.166C68.4348 41.9708 68.5697 41.8041 68.7428 41.6867C68.9159 41.5694 69.1194 41.5067 69.3276 41.5067C69.5955 41.5232 69.8471 41.643 70.0309 41.8415C70.2147 42.04 70.3168 42.3023 70.3163 42.5747H70.3801ZM62.9328 33.5294C63.141 33.5294 63.3445 33.592 63.5175 33.7093C63.6906 33.8267 63.8255 33.9935 63.9052 34.1886C63.9848 34.3838 64.0057 34.5985 63.9651 34.8057C63.9245 35.0128 63.8242 35.2031 63.677 35.3525C63.5298 35.5018 63.3423 35.6036 63.1381 35.6448C62.934 35.686 62.7223 35.6648 62.53 35.584C62.3377 35.5032 62.1733 35.3663 62.0577 35.1907C61.942 35.015 61.8803 34.8086 61.8803 34.5973C61.8759 34.3238 61.9766 34.0593 62.1612 33.8599C62.3458 33.6605 62.5997 33.542 62.869 33.5294H62.9328ZM60.3175 34.2575C60.3096 34.3706 60.3096 34.4842 60.3175 34.5973C60.3175 34.96 60.3936 35.3185 60.5407 35.6491L56.2669 39.4841C55.8931 39.2843 55.4774 39.1789 55.055 39.1766C54.5239 39.1684 54.0042 39.3328 53.5719 39.6459L47.7672 35.3902L51.2755 32.0569C51.6636 32.2662 52.0958 32.3772 52.5353 32.3805C52.9358 32.3793 53.3307 32.2854 53.6899 32.106C54.0492 31.9265 54.3633 31.6662 54.6084 31.3449L60.3175 34.2575ZM52.5991 28.6426C52.8755 28.6469 53.1391 28.7613 53.3331 28.9611C53.527 29.1609 53.6357 29.4301 53.6357 29.7106C53.6041 29.9691 53.4805 30.2071 53.2882 30.3796C53.0958 30.5521 52.8479 30.6473 52.5911 30.6473C52.3344 30.6473 52.0865 30.5521 51.8941 30.3796C51.7017 30.2071 51.5782 29.9691 51.5466 29.7106C51.5461 29.4382 51.6482 29.1759 51.832 28.9774C52.0158 28.7789 52.2674 28.6591 52.5353 28.6426H52.5991ZM39.076 28.6426C39.3539 28.6468 39.6192 28.7607 39.8157 28.96C40.0122 29.1594 40.1244 29.4286 40.1285 29.7106C40.1285 29.9938 40.0176 30.2655 39.8203 30.4658C39.6229 30.666 39.3552 30.7786 39.076 30.7786C38.7969 30.7786 38.5292 30.666 38.3318 30.4658C38.1344 30.2655 38.0235 29.9938 38.0235 29.7106C38.0268 29.4393 38.1301 29.1792 38.3132 28.9815C38.4962 28.7837 38.7456 28.6628 39.0122 28.6426H39.076ZM38.5019 32.3158L39.4269 38.7883C39.0758 38.9728 38.7693 39.2339 38.5294 39.5529C38.2896 39.8718 38.1222 40.2406 38.0395 40.6329L32.6813 40.8271L32.1391 36.1507C32.5909 35.9359 32.9732 35.5952 33.2414 35.1684C33.5097 34.7415 33.6528 34.246 33.654 33.7397C33.6784 33.5355 33.6784 33.3291 33.654 33.1248L37.0986 31.5067C37.4517 31.9108 37.9198 32.1935 38.4381 32.3158H38.5019ZM31.0866 32.6718C31.3629 32.676 31.6266 32.7904 31.8205 32.9902C32.0145 33.19 32.1232 33.4593 32.1231 33.7397C32.1231 33.8778 32.0963 34.0146 32.0442 34.1422C31.9921 34.2698 31.9158 34.3858 31.8195 34.4834C31.7233 34.5811 31.609 34.6586 31.4832 34.7114C31.3575 34.7643 31.2227 34.7915 31.0866 34.7915C30.8102 34.7915 30.5448 34.6812 30.3479 34.4844C30.151 34.2876 30.0382 34.0201 30.0341 33.7397C30.0373 33.4685 30.1406 33.2083 30.3237 33.0106C30.5067 32.8129 30.7562 32.692 31.0228 32.6718H31.0866ZM24.7875 40.7624C25.0624 40.7624 25.326 40.8732 25.5204 41.0704C25.7148 41.2677 25.824 41.5352 25.824 41.8142C25.8272 42.0267 25.7677 42.2354 25.6533 42.4135C25.5389 42.5916 25.3747 42.731 25.1817 42.8138C24.9888 42.8966 24.7758 42.9191 24.5702 42.8784C24.3646 42.8378 24.1756 42.7357 24.0274 42.5854C23.8793 42.4351 23.7787 42.2433 23.7386 42.0346C23.6985 41.826 23.7207 41.6099 23.8023 41.4141C23.884 41.2183 24.0213 41.0517 24.1968 40.9356C24.3723 40.8195 24.578 40.7592 24.7875 40.7624ZM24.7875 52.4291C24.65 52.4312 24.5135 52.4056 24.3859 52.3537C24.2583 52.3018 24.1421 52.2247 24.0442 52.1268C23.9462 52.0289 23.8685 51.9122 23.8154 51.7836C23.7623 51.6549 23.735 51.5168 23.735 51.3773C23.7167 51.2271 23.73 51.0747 23.7741 50.9301C23.8182 50.7856 23.8921 50.6522 23.9909 50.5388C24.0896 50.4254 24.211 50.3346 24.347 50.2725C24.4829 50.2103 24.6304 50.1781 24.7795 50.1781C24.9286 50.1781 25.0761 50.2103 25.212 50.2725C25.348 50.3346 25.4694 50.4254 25.5681 50.5388C25.6669 50.6522 25.7408 50.7856 25.7849 50.9301C25.829 51.0747 25.8424 51.2271 25.824 51.3773C25.8288 51.5237 25.8033 51.6695 25.7492 51.8054C25.6952 51.9413 25.6137 52.0642 25.5101 52.1663C25.4065 52.2683 25.2831 52.3473 25.1476 52.3981C25.0122 52.449 24.8678 52.4705 24.7237 52.4614L24.7875 52.4291ZM32.3942 53.2381C32.3984 52.9577 32.5111 52.6902 32.7081 52.4934C32.905 52.2966 33.1703 52.1863 33.4467 52.1864C33.7015 52.2184 33.936 52.3438 34.106 52.539C34.2761 52.7342 34.3699 52.9857 34.3699 53.2462C34.3699 53.5067 34.2761 53.7583 34.106 53.9535C33.936 54.1487 33.7015 54.2741 33.4467 54.3061C33.3059 54.3148 33.1647 54.2947 33.0317 54.247C32.8987 54.1993 32.7765 54.1249 32.6723 54.0283C32.5682 53.9317 32.4842 53.8148 32.4255 53.6846C32.3668 53.5545 32.3344 53.4136 32.3304 53.2705L32.3942 53.2381ZM35.2168 62.2511C35.0087 62.2511 34.8052 62.1885 34.6321 62.0711C34.459 61.9538 34.3241 61.787 34.2445 61.5918C34.1648 61.3967 34.144 61.1819 34.1846 60.9748C34.2252 60.7676 34.3254 60.5773 34.4726 60.428C34.6198 60.2786 34.8073 60.1769 35.0115 60.1357C35.2157 60.0945 35.4273 60.1156 35.6196 60.1965C35.8119 60.2773 35.9763 60.4142 36.092 60.5898C36.2076 60.7654 36.2694 60.9719 36.2694 61.1831C36.2717 61.331 36.2441 61.4779 36.1885 61.6146C36.1328 61.7513 36.0501 61.875 35.9455 61.978C35.8409 62.0811 35.7167 62.1614 35.5804 62.2139C35.4441 62.2664 35.2987 62.2901 35.1531 62.2835L35.2168 62.2511ZM35.2168 58.497H35.0095L34.6109 55.6006C34.9959 55.409 35.3296 55.1259 35.5836 54.7753L42.2814 57.0084L42.9512 62.5262C42.7476 62.6921 42.5701 62.8885 42.4249 63.1087L37.7843 61.3611C37.8015 60.9982 37.7464 60.6355 37.6222 60.2947C37.4981 59.954 37.3075 59.6421 37.0619 59.3777C36.8163 59.1134 36.5206 58.902 36.1927 58.7562C35.8647 58.6105 35.5111 58.5333 35.1531 58.5294L35.2168 58.497ZM44.6894 65.5521C44.4812 65.5521 44.2777 65.4894 44.1046 65.3721C43.9316 65.2547 43.7967 65.0879 43.717 64.8928C43.6373 64.6976 43.6165 64.4829 43.6571 64.2758C43.6977 64.0686 43.798 63.8783 43.9452 63.7289C44.0924 63.5796 44.2799 63.4779 44.4841 63.4367C44.6882 63.3955 44.8998 63.4166 45.0922 63.4974C45.2845 63.5783 45.4489 63.7151 45.5645 63.8908C45.6802 64.0664 45.7419 64.2729 45.7419 64.4841C45.7442 64.632 45.7167 64.7788 45.661 64.9155C45.6053 65.0522 45.5226 65.1759 45.4181 65.279C45.3135 65.3821 45.1892 65.4624 45.053 65.5149C44.9167 65.5674 44.7712 65.5911 44.6256 65.5844L44.6894 65.5521ZM44.9286 61.8304H44.6894H44.4183L43.908 57.6718L47.0974 58.7236L44.9286 61.8304ZM51.5626 55.0504H51.7699C52.2821 55.0443 52.7817 54.8884 53.2088 54.6014C53.6359 54.3144 53.9724 53.9084 54.1779 53.4323L66.8079 54.6783C66.8433 54.8047 66.8859 54.929 66.9355 55.0504L61.4019 59.743C60.9439 59.3857 60.3848 59.1871 59.8072 59.1767C59.3718 59.1785 58.9436 59.2887 58.5599 59.4974C58.1763 59.7062 57.8489 60.0072 57.6065 60.3741L49.633 57.7365L51.5626 55.0504ZM59.7912 62.9792C59.5817 62.9824 59.3761 62.9221 59.2006 62.806C59.0251 62.6899 58.8877 62.5233 58.8061 62.3275C58.7244 62.1317 58.7023 61.9157 58.7424 61.707C58.7825 61.4983 58.883 61.3066 59.0312 61.1562C59.1793 61.0059 59.3683 60.9039 59.574 60.8632C59.7796 60.8225 59.9925 60.845 60.1855 60.9278C60.3784 61.0107 60.5426 61.15 60.6571 61.3281C60.7715 61.5062 60.8309 61.7149 60.8278 61.9275C60.8325 62.0739 60.807 62.2197 60.753 62.3556C60.6989 62.4915 60.6175 62.6144 60.5139 62.7164C60.4103 62.8185 60.2868 62.8975 60.1514 62.9483C60.016 62.9992 59.8716 63.0207 59.7274 63.0116L59.7912 62.9792ZM69.3595 55.0504C69.1513 55.0504 68.9478 54.9878 68.7747 54.8704C68.6016 54.7531 68.4667 54.5863 68.3871 54.3912C68.3074 54.196 68.2866 53.9813 68.3272 53.7741C68.3678 53.567 68.468 53.3767 68.6152 53.2273C68.7624 53.078 68.95 52.9762 69.1541 52.935C69.3583 52.8938 69.5699 52.915 69.7622 52.9958C69.9545 53.0766 70.1189 53.2135 70.2346 53.3891C70.3502 53.5648 70.412 53.7712 70.412 53.9825C70.4198 54.1347 70.3949 54.2868 70.3391 54.4283C70.2832 54.5698 70.1977 54.6973 70.0885 54.8019C69.9793 54.9066 69.849 54.9859 69.7066 55.0344C69.5642 55.0829 69.4131 55.0994 69.2638 55.0828L69.3595 55.0504Z" fill="white"/>
</g>
<path id="Vector_2" d="M70.0611 51.4744V45.1151C70.6693 44.9297 71.1908 44.5274 71.5295 43.9824C71.8682 43.4374 72.0013 42.7865 71.9041 42.1498C71.807 41.513 71.4862 40.9334 71.001 40.5178C70.5157 40.1023 69.8987 39.8788 69.2638 39.8886C68.9358 39.8937 68.6116 39.9595 68.3069 40.0828L65.1175 35.908C65.3466 35.5103 65.4677 35.058 65.4684 34.5973C65.4713 34.0574 65.3128 33.5292 65.0139 33.0825C64.7149 32.6358 64.2895 32.2916 63.7937 32.0953C63.298 31.899 62.7553 31.8599 62.2371 31.983C61.719 32.1061 61.2498 32.3858 60.8916 32.785L55.1347 29.8239V29.7106C55.1319 29.0756 54.906 28.4624 54.4978 27.9811C54.0896 27.4998 53.5256 27.1819 52.9072 27.0844C52.2888 26.987 51.6564 27.1164 51.1235 27.4494C50.5907 27.7824 50.1922 28.2973 49.9998 28.9015H41.5159C41.3332 28.2845 40.9367 27.7553 40.3996 27.4116C39.8625 27.0679 39.221 26.9329 38.5935 27.0314C37.9659 27.13 37.3947 27.4555 36.9852 27.9479C36.5756 28.4403 36.3554 29.0663 36.365 29.7106C36.365 29.8077 36.365 29.8886 36.365 29.9857L32.761 31.7818C32.2826 31.3478 31.6645 31.1061 31.0228 31.1022C30.322 31.1064 29.6511 31.3908 29.1555 31.8936C28.66 32.3964 28.3798 33.0772 28.3756 33.7883C28.3778 34.2118 28.4818 34.6283 28.6786 35.0019L25.3616 39.3061C25.1496 39.2813 24.9356 39.2813 24.7237 39.3061C24.0979 39.309 23.4936 39.5381 23.0192 39.9523C22.5449 40.3666 22.2316 40.9388 22.1355 41.5663C22.0395 42.1938 22.167 42.8355 22.4953 43.3762C22.8235 43.9168 23.3309 44.3211 23.9263 44.5164V48.9986C23.5131 49.1152 23.1343 49.3326 22.8227 49.6317C22.5112 49.9308 22.2765 50.3026 22.1389 50.7149C22.0014 51.1271 21.9653 51.5672 22.0337 51.9968C22.1021 52.4264 22.273 52.8325 22.5314 53.1799C22.7899 53.5272 23.1281 53.8051 23.5166 53.9894C23.9051 54.1738 24.3321 54.259 24.7605 54.2376C25.1889 54.2163 25.6056 54.089 25.9744 53.8668C26.3432 53.6447 26.6529 53.3344 26.8765 52.963L30.7836 53.6103C30.8509 54.1853 31.1029 54.7218 31.5007 55.1371C31.8984 55.5524 32.4197 55.8233 32.9843 55.908L33.4467 59.1443C33.1584 59.3907 32.9263 59.6978 32.7666 60.0442C32.6069 60.3907 32.5234 60.7683 32.5218 61.1508C32.5038 61.7254 32.669 62.2905 32.9929 62.7622C33.3168 63.2339 33.7822 63.5868 34.3196 63.7686C34.8571 63.9504 35.4381 63.9513 35.9761 63.7712C36.5142 63.5911 36.9806 63.2395 37.3059 62.7689L42.09 64.565C42.1524 65.2394 42.4636 65.8649 42.9612 66.3164C43.4589 66.7678 44.1062 67.0118 44.7736 66.9996C45.441 66.9873 46.0792 66.7196 46.5604 66.2502C47.0416 65.7807 47.3302 65.1441 47.3685 64.4679C47.3422 64.0914 47.2393 63.7246 47.0664 63.3904C46.8935 63.0562 46.6543 62.762 46.3638 62.5262L48.6443 59.2899L57.1759 62.0407C57.1759 62.7488 57.4531 63.4279 57.9466 63.9286C58.4401 64.4294 59.1093 64.7106 59.8072 64.7106C60.505 64.7106 61.1743 64.4294 61.6678 63.9286C62.1612 63.4279 62.4384 62.7488 62.4384 62.0407C62.4376 61.7765 62.3945 61.5142 62.3109 61.264L68.0358 56.4097C68.3561 56.6006 68.7125 56.7205 69.0817 56.7616C69.4508 56.8027 69.8244 56.7641 70.1778 56.6482C70.5312 56.5323 70.8564 56.3419 71.1321 56.0893C71.4078 55.8368 71.6276 55.5279 71.7772 55.1829C71.9268 54.838 72.0027 54.4648 71.9999 54.088C71.9972 53.7112 71.9159 53.3392 71.7613 52.9965C71.6067 52.6538 71.3824 52.3483 71.1031 52.0999C70.8239 51.8515 70.4959 51.6659 70.1409 51.5553L70.0611 51.4744ZM54.3054 51.9113L61.0829 48.1734L66.8877 53.0278C66.8811 53.0977 66.8811 53.1682 66.8877 53.2381L54.3054 51.9113ZM31.0706 52.0245L27.355 51.3935C27.3508 50.8302 27.1711 50.2827 26.8417 49.8293C26.5123 49.3759 26.0501 49.0399 25.521 48.8692V44.387C25.9227 44.2559 26.2874 44.0286 26.5844 43.7245C26.8814 43.4203 27.1019 43.0482 27.2274 42.6394L31.262 42.4938L32.2188 50.8757C31.727 51.1273 31.3254 51.5291 31.0706 52.0245ZM30.5603 36.3773L31.0706 40.8757L27.2114 41.0213C27.1141 40.691 26.9451 40.3869 26.7171 40.1313L29.8108 36.1022C30.0444 36.2342 30.2975 36.327 30.5603 36.3773ZM33.7497 50.633L32.8088 42.4291L38.183 42.2349C38.3672 42.681 38.6681 43.0676 39.0532 43.3528C39.4383 43.638 39.8928 43.8109 40.3677 43.853L40.9897 48.3999L35.2009 51.442C34.8256 51.0332 34.3358 50.7508 33.7976 50.633H33.7497ZM50.1752 30.8756L46.4595 34.4193L41.4681 30.6976V30.5197H49.9838C50.0299 30.6473 50.0944 30.7672 50.1752 30.8756ZM40.4475 31.9436L45.2316 35.5358L41.8189 38.7721C41.527 38.6278 41.2151 38.5296 40.894 38.4808L39.985 32.1701C40.1509 32.1222 40.3073 32.0455 40.4475 31.9436ZM61.4816 36.798C61.8975 37.0622 62.3783 37.2024 62.869 37.2025C63.2503 37.2013 63.6264 37.1128 63.9694 36.9436L67.0631 41.0375C66.7805 41.4749 66.6308 41.9869 66.6325 42.51C66.6443 42.7136 66.6818 42.9148 66.7441 43.1087L61.2903 46.1184L57.4151 42.8821C57.5675 42.5356 57.6489 42.1612 57.6543 41.7818C57.6466 41.359 57.5429 40.9437 57.3513 40.5682L61.4816 36.798ZM53.5081 50.3902C53.0206 49.9359 52.3839 49.6821 51.722 49.6783C51.3307 49.6811 50.9445 49.7694 50.5898 49.9372L47.4004 46.7009L53.1094 43.6912C53.5217 44.1092 54.0612 44.3734 54.6402 44.441C55.2193 44.5086 55.8038 44.3755 56.2988 44.0634L59.7274 46.9274L53.5081 50.3902ZM56.0277 41.7818C56.0277 42.065 55.9168 42.3367 55.7195 42.537C55.5221 42.7372 55.2544 42.8498 54.9752 42.8498C54.6961 42.8498 54.4284 42.7372 54.231 42.537C54.0336 42.3367 53.9227 42.065 53.9227 41.7818C53.9227 41.4986 54.0336 41.2269 54.231 41.0266C54.4284 40.8264 54.6961 40.7138 54.9752 40.7138C55.2544 40.7138 55.5221 40.8264 55.7195 41.0266C55.9168 41.2269 56.0277 41.4986 56.0277 41.7818ZM52.3759 42.2672L46.2522 45.5035L43.0628 42.2672C43.242 41.9116 43.335 41.5178 43.3339 41.1184C43.3196 40.6801 43.1991 40.2522 42.9831 39.8724L46.5871 36.442L52.4875 40.8595C52.3802 41.1553 52.321 41.4668 52.3121 41.7818C52.3918 42.0083 52.3918 42.1702 52.3918 42.332L52.3759 42.2672ZM40.6388 40.0019C40.8477 39.9987 41.0527 40.0586 41.2279 40.1739C41.403 40.2893 41.5404 40.455 41.6225 40.6498C41.7046 40.8446 41.7278 41.0599 41.689 41.2681C41.6502 41.4763 41.5512 41.6681 41.4047 41.8191C41.2581 41.9701 41.0706 42.0734 40.8661 42.1159C40.6615 42.1585 40.449 42.1383 40.2558 42.058C40.0625 41.9776 39.8972 41.8408 39.7808 41.6648C39.6645 41.4888 39.6023 41.2817 39.6023 41.0698C39.6181 40.8035 39.7317 40.5527 39.9206 40.3671C40.1094 40.1814 40.36 40.0742 40.6229 40.0666L40.6388 40.0019ZM44.7532 46.3449L42.5365 47.51L41.9943 43.5294L44.7532 46.3449ZM35.9664 52.8174L41.2289 50.0342L41.9465 55.2931L36.0142 53.3029C36.0154 53.1398 35.9994 52.977 35.9664 52.8174ZM42.8236 49.2414L46.013 47.6232L49.4097 51.1993C49.1929 51.5955 49.0777 52.0406 49.0748 52.4938C49.0824 52.8659 49.1689 53.2319 49.3285 53.567C49.4882 53.9021 49.7171 54.1984 49.9998 54.4355L48.0223 57.2996L43.6688 55.8595L42.8236 49.2414ZM51.7699 53.4809C51.5617 53.4809 51.3582 53.4182 51.1851 53.3009C51.012 53.1835 50.8771 53.0167 50.7975 52.8216C50.7178 52.6264 50.697 52.4117 50.7376 52.2045C50.7782 51.9974 50.8784 51.8071 51.0256 51.6577C51.1728 51.5084 51.3604 51.4067 51.5645 51.3654C51.7687 51.3242 51.9803 51.3454 52.1726 51.4262C52.365 51.507 52.5293 51.6439 52.645 51.8196C52.7606 51.9952 52.8224 52.2017 52.8224 52.4129C52.8226 52.5588 52.7935 52.7031 52.7366 52.8371C52.6798 52.9711 52.5965 53.0918 52.4919 53.1919C52.3873 53.292 52.2636 53.3692 52.1285 53.4189C51.9933 53.4686 51.8496 53.4897 51.7061 53.4809H51.7699ZM68.004 51.7171L62.6298 47.2672L67.5574 44.5488C67.8369 44.8076 68.169 45.0009 68.5302 45.1151V51.4744C68.326 51.5351 68.1284 51.6164 67.9402 51.7171H68.004ZM70.3801 42.5747C70.3801 42.7859 70.3183 42.9924 70.2027 43.168C70.087 43.3436 69.9227 43.4805 69.7303 43.5614C69.538 43.6422 69.3264 43.6633 69.1222 43.6221C68.9181 43.5809 68.7305 43.4792 68.5833 43.3298C68.4361 43.1805 68.3359 42.9902 68.2953 42.783C68.2547 42.5759 68.2755 42.3611 68.3552 42.166C68.4348 41.9708 68.5697 41.8041 68.7428 41.6867C68.9159 41.5694 69.1194 41.5067 69.3276 41.5067C69.5955 41.5232 69.8471 41.643 70.0309 41.8415C70.2147 42.04 70.3168 42.3023 70.3163 42.5747H70.3801ZM62.9328 33.5294C63.141 33.5294 63.3445 33.592 63.5175 33.7093C63.6906 33.8267 63.8255 33.9935 63.9052 34.1886C63.9848 34.3838 64.0057 34.5985 63.9651 34.8057C63.9245 35.0128 63.8242 35.2031 63.677 35.3525C63.5298 35.5018 63.3423 35.6036 63.1381 35.6448C62.934 35.686 62.7223 35.6648 62.53 35.584C62.3377 35.5032 62.1733 35.3663 62.0577 35.1907C61.942 35.015 61.8803 34.8086 61.8803 34.5973C61.8759 34.3238 61.9766 34.0593 62.1612 33.8599C62.3458 33.6605 62.5997 33.542 62.869 33.5294H62.9328ZM60.3175 34.2575C60.3096 34.3706 60.3096 34.4842 60.3175 34.5973C60.3175 34.96 60.3936 35.3185 60.5407 35.6491L56.2669 39.4841C55.8931 39.2843 55.4774 39.1789 55.055 39.1766C54.5239 39.1684 54.0042 39.3328 53.5719 39.6459L47.7672 35.3902L51.2755 32.0569C51.6636 32.2662 52.0958 32.3772 52.5353 32.3805C52.9358 32.3793 53.3307 32.2854 53.6899 32.106C54.0492 31.9265 54.3633 31.6662 54.6084 31.3449L60.3175 34.2575ZM52.5991 28.6426C52.8755 28.6469 53.1391 28.7613 53.3331 28.9611C53.527 29.1609 53.6357 29.4301 53.6357 29.7106C53.6041 29.9691 53.4805 30.2071 53.2882 30.3796C53.0958 30.5521 52.8479 30.6473 52.5911 30.6473C52.3344 30.6473 52.0865 30.5521 51.8941 30.3796C51.7017 30.2071 51.5782 29.9691 51.5466 29.7106C51.5461 29.4382 51.6482 29.1759 51.832 28.9774C52.0158 28.7789 52.2674 28.6591 52.5353 28.6426H52.5991ZM39.076 28.6426C39.3539 28.6468 39.6192 28.7607 39.8157 28.96C40.0122 29.1594 40.1244 29.4286 40.1285 29.7106C40.1285 29.9938 40.0176 30.2655 39.8203 30.4658C39.6229 30.666 39.3552 30.7786 39.076 30.7786C38.7969 30.7786 38.5292 30.666 38.3318 30.4658C38.1344 30.2655 38.0235 29.9938 38.0235 29.7106C38.0268 29.4393 38.1301 29.1792 38.3132 28.9815C38.4962 28.7837 38.7456 28.6628 39.0122 28.6426H39.076ZM38.5019 32.3158L39.4269 38.7883C39.0758 38.9728 38.7693 39.2339 38.5294 39.5528C38.2896 39.8718 38.1222 40.2406 38.0395 40.6329L32.6813 40.8271L32.1391 36.1507C32.5909 35.9359 32.9732 35.5952 33.2414 35.1684C33.5097 34.7415 33.6528 34.246 33.654 33.7397C33.6784 33.5355 33.6784 33.3291 33.654 33.1248L37.0986 31.5067C37.4517 31.9107 37.9198 32.1935 38.4381 32.3158H38.5019ZM31.0866 32.6718C31.3629 32.676 31.6266 32.7904 31.8205 32.9902C32.0145 33.19 32.1232 33.4593 32.1231 33.7397C32.1231 33.8778 32.0963 34.0146 32.0442 34.1422C31.9921 34.2698 31.9158 34.3858 31.8195 34.4834C31.7233 34.5811 31.609 34.6586 31.4832 34.7114C31.3575 34.7643 31.2227 34.7915 31.0866 34.7915C30.8102 34.7915 30.5448 34.6812 30.3479 34.4844C30.151 34.2876 30.0382 34.0201 30.0341 33.7397C30.0373 33.4685 30.1406 33.2083 30.3237 33.0106C30.5067 32.8129 30.7562 32.692 31.0228 32.6718H31.0866ZM24.7875 40.7624C25.0624 40.7624 25.326 40.8732 25.5204 41.0704C25.7148 41.2677 25.824 41.5352 25.824 41.8142C25.8272 42.0267 25.7677 42.2354 25.6533 42.4135C25.5389 42.5916 25.3747 42.731 25.1817 42.8138C24.9888 42.8966 24.7758 42.9191 24.5702 42.8784C24.3646 42.8378 24.1756 42.7357 24.0274 42.5854C23.8793 42.4351 23.7787 42.2433 23.7386 42.0346C23.6985 41.826 23.7207 41.6099 23.8023 41.4141C23.884 41.2183 24.0213 41.0517 24.1968 40.9356C24.3723 40.8195 24.578 40.7592 24.7875 40.7624ZM24.7875 52.4291C24.65 52.4312 24.5135 52.4056 24.3859 52.3537C24.2583 52.3018 24.1421 52.2247 24.0442 52.1268C23.9462 52.0289 23.8685 51.9122 23.8154 51.7836C23.7623 51.6549 23.735 51.5168 23.735 51.3773C23.7167 51.2271 23.73 51.0747 23.7741 50.9301C23.8182 50.7856 23.8921 50.6522 23.9909 50.5388C24.0896 50.4254 24.211 50.3346 24.347 50.2725C24.4829 50.2103 24.6304 50.1781 24.7795 50.1781C24.9286 50.1781 25.0761 50.2103 25.212 50.2725C25.348 50.3346 25.4694 50.4254 25.5681 50.5388C25.6669 50.6522 25.7408 50.7856 25.7849 50.9301C25.829 51.0747 25.8424 51.2271 25.824 51.3773C25.8288 51.5237 25.8033 51.6695 25.7492 51.8054C25.6952 51.9413 25.6137 52.0642 25.5101 52.1663C25.4065 52.2683 25.2831 52.3473 25.1476 52.3981C25.0122 52.449 24.8678 52.4705 24.7237 52.4614L24.7875 52.4291ZM32.3942 53.2381C32.3984 52.9577 32.5111 52.6902 32.7081 52.4934C32.905 52.2966 33.1703 52.1863 33.4467 52.1864C33.7015 52.2184 33.936 52.3438 34.106 52.539C34.2761 52.7342 34.3699 52.9857 34.3699 53.2462C34.3699 53.5067 34.2761 53.7583 34.106 53.9535C33.936 54.1487 33.7015 54.2741 33.4467 54.3061C33.3059 54.3148 33.1647 54.2947 33.0317 54.247C32.8987 54.1993 32.7765 54.1249 32.6723 54.0283C32.5682 53.9317 32.4842 53.8148 32.4255 53.6846C32.3668 53.5545 32.3344 53.4136 32.3304 53.2705L32.3942 53.2381ZM35.2168 62.2511C35.0087 62.2511 34.8052 62.1885 34.6321 62.0711C34.459 61.9538 34.3241 61.787 34.2445 61.5918C34.1648 61.3967 34.144 61.1819 34.1846 60.9748C34.2252 60.7676 34.3254 60.5773 34.4726 60.428C34.6198 60.2786 34.8073 60.1769 35.0115 60.1357C35.2157 60.0945 35.4273 60.1156 35.6196 60.1965C35.8119 60.2773 35.9763 60.4142 36.092 60.5898C36.2076 60.7654 36.2693 60.9719 36.2693 61.1831C36.2717 61.331 36.2441 61.4779 36.1885 61.6146C36.1328 61.7513 36.0501 61.875 35.9455 61.978C35.8409 62.0811 35.7167 62.1614 35.5804 62.2139C35.4441 62.2664 35.2987 62.2901 35.1531 62.2834L35.2168 62.2511ZM35.2168 58.497H35.0095L34.6109 55.6006C34.9959 55.409 35.3296 55.1259 35.5836 54.7753L42.2814 57.0084L42.9512 62.5262C42.7476 62.6921 42.5701 62.8885 42.4249 63.1087L37.7843 61.3611C37.8015 60.9982 37.7464 60.6355 37.6222 60.2947C37.4981 59.954 37.3075 59.6421 37.0619 59.3777C36.8163 59.1134 36.5206 58.902 36.1927 58.7562C35.8647 58.6105 35.5111 58.5333 35.1531 58.5294L35.2168 58.497ZM44.6894 65.5521C44.4812 65.5521 44.2777 65.4894 44.1046 65.3721C43.9316 65.2547 43.7967 65.0879 43.717 64.8928C43.6373 64.6976 43.6165 64.4829 43.6571 64.2757C43.6977 64.0686 43.798 63.8783 43.9452 63.7289C44.0923 63.5796 44.2799 63.4779 44.4841 63.4367C44.6882 63.3955 44.8998 63.4166 45.0922 63.4974C45.2845 63.5783 45.4489 63.7151 45.5645 63.8908C45.6802 64.0664 45.7419 64.2729 45.7419 64.4841C45.7442 64.632 45.7167 64.7788 45.661 64.9155C45.6053 65.0522 45.5226 65.1759 45.4181 65.279C45.3135 65.3821 45.1892 65.4623 45.053 65.5149C44.9167 65.5674 44.7712 65.5911 44.6256 65.5844L44.6894 65.5521ZM44.9286 61.8304H44.6894H44.4183L43.908 57.6718L47.0974 58.7236L44.9286 61.8304ZM51.5626 55.0504H51.7699C52.2821 55.0443 52.7817 54.8884 53.2088 54.6014C53.6359 54.3143 53.9724 53.9084 54.1779 53.4323L66.8079 54.6783C66.8433 54.8047 66.8859 54.929 66.9355 55.0504L61.4019 59.743C60.9439 59.3857 60.3848 59.1871 59.8072 59.1767C59.3718 59.1785 58.9436 59.2887 58.5599 59.4974C58.1763 59.7062 57.8489 60.0072 57.6065 60.3741L49.633 57.7365L51.5626 55.0504ZM59.7912 62.9792C59.5817 62.9824 59.3761 62.9221 59.2006 62.806C59.0251 62.6899 58.8877 62.5233 58.8061 62.3275C58.7244 62.1317 58.7023 61.9157 58.7424 61.707C58.7825 61.4983 58.883 61.3066 59.0312 61.1562C59.1793 61.0059 59.3683 60.9039 59.5739 60.8632C59.7796 60.8225 59.9925 60.845 60.1855 60.9278C60.3784 61.0107 60.5426 61.15 60.6571 61.3281C60.7715 61.5062 60.8309 61.7149 60.8278 61.9275C60.8325 62.0739 60.807 62.2197 60.753 62.3556C60.6989 62.4915 60.6175 62.6144 60.5139 62.7164C60.4103 62.8185 60.2868 62.8975 60.1514 62.9483C60.016 62.9991 59.8716 63.0207 59.7274 63.0116L59.7912 62.9792ZM69.3595 55.0504C69.1513 55.0504 68.9478 54.9878 68.7747 54.8704C68.6016 54.7531 68.4667 54.5863 68.3871 54.3912C68.3074 54.196 68.2866 53.9813 68.3272 53.7741C68.3678 53.567 68.468 53.3767 68.6152 53.2273C68.7624 53.0779 68.95 52.9762 69.1541 52.935C69.3583 52.8938 69.5699 52.915 69.7622 52.9958C69.9545 53.0766 70.1189 53.2135 70.2346 53.3891C70.3502 53.5648 70.412 53.7712 70.412 53.9825C70.4198 54.1347 70.3949 54.2868 70.3391 54.4283C70.2832 54.5698 70.1977 54.6973 70.0885 54.8019C69.9793 54.9066 69.849 54.9859 69.7066 55.0344C69.5642 55.0829 69.4131 55.0994 69.2638 55.0828L69.3595 55.0504Z" fill="#EDFFE7"/>
</g>
</g>
<defs>
<filter id="filter0_b_1801_2364" x="7" y="7" width="80" height="80" filterUnits="userSpaceOnUse" color-interpolation-filters="sRGB">
<feFlood flood-opacity="0" result="BackgroundImageFix"/>
<feGaussianBlur in="BackgroundImageFix" stdDeviation="2"/>
<feComposite in2="SourceAlpha" operator="in" result="effect1_backgroundBlur_1801_2364"/>
<feBlend mode="normal" in="SourceGraphic" in2="effect1_backgroundBlur_1801_2364" result="shape"/>
</filter>
<filter id="filter1_f_1801_2364" x="0" y="0" width="94" height="94" filterUnits="userSpaceOnUse" color-interpolation-filters="sRGB">
<feFlood flood-opacity="0" result="BackgroundImageFix"/>
<feBlend mode="normal" in="SourceGraphic" in2="BackgroundImageFix" result="shape"/>
<feGaussianBlur stdDeviation="2" result="effect1_foregroundBlur_1801_2364"/>
</filter>
<filter id="filter2_f_1801_2364" x="18" y="23" width="58" height="48" filterUnits="userSpaceOnUse" color-interpolation-filters="sRGB">
<feFlood flood-opacity="0" result="BackgroundImageFix"/>
<feBlend mode="normal" in="SourceGraphic" in2="BackgroundImageFix" result="shape"/>
<feGaussianBlur stdDeviation="2" result="effect1_foregroundBlur_1801_2364"/>
</filter>
<radialGradient id="paint0_radial_1801_2364" cx="0" cy="0" r="1" gradientUnits="userSpaceOnUse" gradientTransform="translate(47 47) rotate(90) scale(36)">
<stop offset="0.75" stop-color="#1759F1" stop-opacity="0.2"/>
<stop offset="1" stop-color="white"/>
</radialGradient>
<clipPath id="clip0_1801_2364">
<rect width="56" height="44" fill="white" transform="translate(19 25)"/>
</clipPath>
</defs>
</svg>
