<svg width="58" height="58" viewBox="0 0 58 58" fill="none" xmlns="http://www.w3.org/2000/svg">
<g id="&#228;&#186;&#164;&#233;&#128;&#154;&#231;&#137;&#169;&#230;&#181;&#129; &#230;&#130;&#172;&#230;&#181;&#174;&#230;&#128;&#129;">
<g id="Group 2">
<g id="Ellipse 55" filter="url(#filter0_b_1801_2358)">
<circle cx="29" cy="29" r="26" fill="url(#paint0_radial_1801_2358)"/>
<circle cx="29" cy="29" r="25.85" stroke="#0173FE" stroke-width="0.3"/>
</g>
<circle id="Ellipse 56" cx="29" cy="29" r="28.5" stroke="#0173FE"/>
</g>
<g id="&#233;&#151;&#133;&#230;&#151;&#130;&#238;&#158;&#135;&#229;&#166;&#175;&#226;&#128;&#179;&#231;&#180;&#161;" clip-path="url(#clip0_1801_2358)">
<path id="Vector" d="M29.0102 13C25.8449 12.998 22.75 13.9349 20.1173 15.6922C17.4845 17.4495 15.4322 19.9483 14.2199 22.8723C13.0076 25.7964 12.6899 29.0143 13.3069 32.1189C13.924 35.2236 15.448 38.0755 17.6863 40.3137C19.9246 42.552 22.7764 44.076 25.8811 44.6931C28.9857 45.3101 32.2036 44.9924 35.1277 43.7801C38.0517 42.5678 40.5505 40.5155 42.3078 37.8827C44.0651 35.25 45.002 32.1551 45 28.9898C44.9973 24.7498 43.3118 20.6844 40.3137 17.6863C37.3156 14.6882 33.2502 13.0027 29.0102 13ZM14.0646 29.5016H17.5042C17.5502 32.0398 18.0602 34.5481 19.009 36.9028H16.3269C14.9285 34.6806 14.1476 32.1259 14.0646 29.5016ZM38.4792 35.4082C38.3603 35.0148 38.1179 34.6701 37.7879 34.4251C37.4579 34.1801 37.0578 34.0478 36.6468 34.0478C36.2358 34.0478 35.8358 34.1801 35.5058 34.4251C35.1758 34.6701 34.9334 35.0148 34.8145 35.4082C34.4255 35.4082 34.0365 35.2956 33.6679 35.2239C33.9048 33.3254 34.0313 31.4148 34.0467 29.5016H39.4926C39.451 31.51 39.1095 33.5008 38.4792 35.4082ZM23.9738 29.5016C23.9738 29.9008 23.9738 30.2898 23.9738 30.6891C23.6024 30.3202 23.2602 29.9232 22.9501 29.5016H23.9738ZM33.023 29.5016C33.0096 31.3526 32.8935 33.2015 32.675 35.0397C29.903 34.5198 27.2933 33.3518 25.0589 31.6308C25.0589 30.9347 25.0077 30.2182 24.9974 29.4709L33.023 29.5016ZM24.9974 28.4779C25.0118 26.0013 25.2241 23.5298 25.6321 21.087H32.3884C32.7964 23.5298 33.0087 26.0013 33.023 28.4779H24.9974ZM32.5317 36.0531C32.4805 36.3397 32.4395 36.6264 32.3884 36.9028H25.6321C25.4274 35.7153 25.2636 34.4152 25.151 33.0128C27.376 34.523 29.8885 35.558 32.5317 36.0531ZM33.5553 36.2476C33.9648 36.309 34.3743 36.3807 34.8042 36.4319C34.8441 36.5964 34.9061 36.7548 34.9885 36.9028H33.412C33.453 36.6775 33.4939 36.4626 33.5246 36.2476H33.5553ZM35.7665 35.9917C35.7665 35.8115 35.8199 35.6353 35.92 35.4855C36.0201 35.3357 36.1624 35.2189 36.3289 35.15C36.4954 35.081 36.6786 35.063 36.8553 35.0981C37.032 35.1333 37.1943 35.22 37.3218 35.3475C37.4492 35.4749 37.536 35.6372 37.5711 35.8139C37.6063 35.9907 37.5882 36.1739 37.5193 36.3403C37.4503 36.5068 37.3335 36.6491 37.1837 36.7492C37.0339 36.8493 36.8577 36.9028 36.6775 36.9028C36.5553 36.9069 36.4336 36.8864 36.3195 36.8424C36.2053 36.7985 36.1013 36.732 36.0134 36.647C35.9255 36.562 35.8556 36.4602 35.8079 36.3476C35.7602 36.235 35.7357 36.114 35.7358 35.9917H35.7665ZM34.0774 28.4779C34.0643 26.0013 33.8521 23.5297 33.4427 21.087H37.9367C38.9376 23.4252 39.4764 25.935 39.5234 28.4779H34.0774ZM33.2585 20.0633C32.947 18.0289 32.2261 16.0787 31.1395 14.3308C32.5203 14.8165 33.7897 15.574 34.8728 16.5586C35.9558 17.5433 36.8306 18.735 37.4453 20.0633H33.2585ZM32.2348 20.0633H25.8266C26.6251 16.3065 27.874 14.0237 29.0102 14.0237C30.1465 14.0237 31.3954 16.2758 32.1939 20.0633H32.2348ZM24.8337 20.0633H20.6059C21.2264 18.73 22.109 17.5352 23.2012 16.5504C24.2934 15.5655 25.5727 14.8106 26.9629 14.3308C25.8583 16.0747 25.1199 18.0251 24.7927 20.0633H24.8337ZM24.6494 21.087C24.2401 23.5297 24.0278 26.0013 24.0147 28.4779H22.3257C21.9964 27.9051 21.732 27.2974 21.5374 26.666C21.7702 26.488 21.9587 26.2587 22.0883 25.9959C22.2179 25.7331 22.2851 25.444 22.2847 25.151C22.2885 24.7927 22.1923 24.4405 22.0068 24.134C21.8213 23.8274 21.5539 23.5788 21.2347 23.416C20.9155 23.2532 20.5572 23.1828 20.2001 23.2126C19.8431 23.2424 19.5015 23.3713 19.2137 23.5848C19.4438 22.7312 19.7381 21.8962 20.0941 21.087H24.6494ZM18.753 26.144C18.9222 26.4307 19.1631 26.6684 19.4521 26.8335C19.7412 26.9987 20.0683 27.0856 20.4012 27.0857H20.6366C20.7859 27.5725 20.9777 28.0452 21.2099 28.4984H18.5278C18.547 27.7109 18.6085 26.9249 18.7121 26.144H18.753ZM20.4012 26.0621C20.2205 26.0641 20.0434 26.0124 19.8922 25.9135C19.7411 25.8147 19.6227 25.6731 19.5522 25.5068C19.4816 25.3405 19.4621 25.157 19.4961 24.9796C19.5301 24.8022 19.6161 24.6389 19.7431 24.5105C19.8701 24.382 20.0324 24.2942 20.2094 24.2583C20.3864 24.2223 20.5701 24.2397 20.7372 24.3083C20.9042 24.377 21.0471 24.4937 21.1477 24.6438C21.2483 24.7938 21.302 24.9704 21.302 25.151C21.3021 25.2733 21.2775 25.3943 21.2298 25.5069C21.1821 25.6195 21.1123 25.7213 21.0244 25.8063C20.9365 25.8913 20.8324 25.9578 20.7183 26.0017C20.6042 26.0457 20.4824 26.0662 20.3602 26.0621H20.4012ZM17.5451 28.4779H14.0646C14.1489 25.8571 14.9298 23.306 16.3269 21.087H19.009C18.06 23.438 17.55 25.943 17.5042 28.4779H17.5451ZM18.5688 29.5016H21.7933C22.4325 30.4954 23.2117 31.3919 24.1068 32.1631C24.2037 33.7515 24.3848 35.3336 24.6494 36.9028H20.1145C19.1126 34.5613 18.5737 32.048 18.5278 29.5016H18.5688ZM24.8337 37.9264C25.1483 39.9616 25.8727 41.9118 26.9629 43.659C25.5821 43.1733 24.3127 42.4157 23.2296 41.4311C22.1465 40.4465 21.2718 39.2548 20.6571 37.9264H24.8337ZM25.8573 37.9264H32.2246C31.4261 41.6833 30.1772 43.9661 29.0409 43.9661C27.9047 43.9661 26.6251 41.6833 25.8266 37.9264H25.8573ZM33.2585 37.9264H37.4453C36.8306 39.2548 35.9558 40.4465 34.8728 41.4311C33.7897 42.4157 32.5203 43.1733 31.1395 43.659C32.2153 41.9086 32.9257 39.9586 33.2278 37.9264H33.2585ZM40.547 29.5016H43.9558C43.8729 32.1259 43.092 34.6806 41.6935 36.9028H39.0115C39.9603 34.5481 40.4703 32.0398 40.5163 29.5016H40.547ZM40.547 28.4779C40.5012 25.943 39.9911 23.438 39.0422 21.087H41.7242C43.1214 23.306 43.9023 25.8571 43.9866 28.4779H40.547ZM41.0282 20.0633H38.5611C37.6763 18.1863 36.3945 16.5237 34.8042 15.1907C37.2658 16.2342 39.404 17.9164 40.9974 20.0633H41.0282ZM23.2163 15.1907C21.626 16.5237 20.3441 18.1863 19.4594 20.0633H17.023C18.6165 17.9164 20.7546 16.2342 23.2163 15.1907ZM17.023 37.9264H19.4594C20.3441 39.8035 21.626 41.466 23.2163 42.7991C20.7546 41.7556 18.6165 40.0733 17.023 37.9264ZM34.8042 42.7991C36.3945 41.466 37.6763 39.8035 38.5611 37.9264H40.9974C39.404 40.0733 37.2658 41.7556 34.8042 42.7991Z" fill="#6CE7F8"/>
</g>
</g>
<defs>
<filter id="filter0_b_1801_2358" x="-3" y="-3" width="64" height="64" filterUnits="userSpaceOnUse" color-interpolation-filters="sRGB">
<feFlood flood-opacity="0" result="BackgroundImageFix"/>
<feGaussianBlur in="BackgroundImageFix" stdDeviation="3"/>
<feComposite in2="SourceAlpha" operator="in" result="effect1_backgroundBlur_1801_2358"/>
<feBlend mode="normal" in="SourceGraphic" in2="effect1_backgroundBlur_1801_2358" result="shape"/>
</filter>
<radialGradient id="paint0_radial_1801_2358" cx="0" cy="0" r="1" gradientUnits="userSpaceOnUse" gradientTransform="translate(29 29) rotate(90) scale(26)">
<stop offset="0.75" stop-color="#0173FE" stop-opacity="0"/>
<stop offset="1" stop-color="#0173FE" stop-opacity="0.7"/>
</radialGradient>
<clipPath id="clip0_1801_2358">
<rect width="32" height="32" fill="white" transform="translate(13 13)"/>
</clipPath>
</defs>
</svg>
