<svg width="53" height="53" viewBox="0 0 53 53" fill="none" xmlns="http://www.w3.org/2000/svg">
<rect width="53" height="53" rx="26.5" fill="white" fill-opacity="0.1"/>
<path d="M11.7619 21.3788H16.0272C16.2085 21.3788 16.3849 21.3156 16.5221 21.199L24.8102 14.1821C25.3051 13.7642 26.067 14.1117 26.067 14.7555V38.2431C26.067 38.8821 25.3173 39.232 24.82 38.8262L16.6005 32.1106C16.4633 31.9989 16.2918 31.9381 16.1154 31.9381H11.7619C11.3405 31.9381 11 31.6004 11 31.1825V22.1344C11 21.7189 11.3405 21.3788 11.7619 21.3788Z" fill="#377ADF"/>
<path d="M32.2018 20.5065L30.5423 22.1523L41.3382 32.859L42.9978 31.2132L32.2018 20.5065Z" fill="#377ADF"/>
<path d="M30.5445 31.2135L32.2041 32.8594L43 22.1527L41.3404 20.5068L30.5445 31.2135Z" fill="#377ADF"/>
<rect x="1" y="1" width="51" height="51" rx="25.5" stroke="#377ADF" stroke-opacity="0.7" stroke-width="2"/>
</svg>
