<svg width="54" height="11" viewBox="0 0 54 11" fill="none" xmlns="http://www.w3.org/2000/svg">
<path d="M2.3331 10H0.645597L3.71804 1.27273H5.66974L8.74645 10H7.05895L4.72798 3.0625H4.6598L2.3331 10ZM2.38849 6.57812H6.99077V7.84801H2.38849V6.57812ZM13.9996 7.24716V3.45455H15.5423V10H14.0465V8.83665H13.9783C13.8306 9.20312 13.5877 9.50284 13.2496 9.7358C12.9144 9.96875 12.5011 10.0852 12.0096 10.0852C11.5806 10.0852 11.2013 9.99006 10.8718 9.79972C10.5451 9.60653 10.2894 9.3267 10.1048 8.96023C9.9201 8.59091 9.82777 8.14489 9.82777 7.62216V3.45455H11.3704V7.38352C11.3704 7.7983 11.484 8.12784 11.7113 8.37216C11.9386 8.61648 12.2369 8.73864 12.6062 8.73864C12.8335 8.73864 13.0536 8.68324 13.2667 8.57244C13.4798 8.46165 13.6545 8.29688 13.7908 8.07812C13.93 7.85653 13.9996 7.57955 13.9996 7.24716ZM19.5575 10.1151C19.0433 10.1151 18.5831 9.98295 18.1768 9.71875C17.7706 9.45455 17.4496 9.07102 17.2138 8.56818C16.978 8.06534 16.8601 7.45455 16.8601 6.7358C16.8601 6.00852 16.9794 5.39489 17.218 4.89489C17.4595 4.39205 17.7848 4.01278 18.1939 3.7571C18.603 3.49858 19.0589 3.36932 19.5618 3.36932C19.9453 3.36932 20.2607 3.43466 20.5078 3.56534C20.755 3.69318 20.951 3.84801 21.0959 4.02983C21.2408 4.20881 21.353 4.37784 21.4325 4.53693H21.4964V1.27273H23.0433V10H21.5263V8.96875H21.4325C21.353 9.12784 21.2379 9.29687 21.0874 9.47585C20.9368 9.65199 20.7379 9.80256 20.4908 9.92756C20.2436 10.0526 19.9325 10.1151 19.5575 10.1151ZM19.9879 8.84943C20.3146 8.84943 20.593 8.76136 20.8232 8.58523C21.0533 8.40625 21.228 8.15767 21.3473 7.83949C21.4666 7.52131 21.5263 7.15057 21.5263 6.72727C21.5263 6.30398 21.4666 5.93608 21.3473 5.62358C21.2308 5.31108 21.0575 5.06818 20.8274 4.89489C20.6001 4.72159 20.3203 4.63494 19.9879 4.63494C19.6442 4.63494 19.3572 4.72443 19.1271 4.90341C18.897 5.08239 18.7237 5.32955 18.6072 5.64489C18.4908 5.96023 18.4325 6.32102 18.4325 6.72727C18.4325 7.13636 18.4908 7.50142 18.6072 7.82244C18.7266 8.14062 18.9013 8.39205 19.1314 8.5767C19.3643 8.75852 19.6499 8.84943 19.9879 8.84943ZM24.6871 10V3.45455H26.2298V10H24.6871ZM25.4627 2.52557C25.2184 2.52557 25.0082 2.4446 24.832 2.28267C24.6559 2.1179 24.5678 1.92045 24.5678 1.69034C24.5678 1.45739 24.6559 1.25994 24.832 1.09801C25.0082 0.933238 25.2184 0.850852 25.4627 0.850852C25.7099 0.850852 25.9201 0.933238 26.0934 1.09801C26.2695 1.25994 26.3576 1.45739 26.3576 1.69034C26.3576 1.92045 26.2695 2.1179 26.0934 2.28267C25.9201 2.4446 25.7099 2.52557 25.4627 2.52557ZM30.6712 10.1278C30.032 10.1278 29.478 9.98722 29.0092 9.70597C28.5405 9.42472 28.1768 9.03125 27.9183 8.52557C27.6626 8.01989 27.5348 7.42898 27.5348 6.75284C27.5348 6.0767 27.6626 5.48437 27.9183 4.97585C28.1768 4.46733 28.5405 4.07244 29.0092 3.79119C29.478 3.50994 30.032 3.36932 30.6712 3.36932C31.3104 3.36932 31.8643 3.50994 32.3331 3.79119C32.8018 4.07244 33.1641 4.46733 33.4197 4.97585C33.6783 5.48437 33.8075 6.0767 33.8075 6.75284C33.8075 7.42898 33.6783 8.01989 33.4197 8.52557C33.1641 9.03125 32.8018 9.42472 32.3331 9.70597C31.8643 9.98722 31.3104 10.1278 30.6712 10.1278ZM30.6797 8.89205C31.0263 8.89205 31.3161 8.79687 31.549 8.60653C31.782 8.41335 31.9553 8.15483 32.0689 7.83097C32.1854 7.5071 32.2436 7.14631 32.2436 6.74858C32.2436 6.34801 32.1854 5.9858 32.0689 5.66193C31.9553 5.33523 31.782 5.07528 31.549 4.8821C31.3161 4.68892 31.0263 4.59233 30.6797 4.59233C30.3246 4.59233 30.0291 4.68892 29.7933 4.8821C29.5604 5.07528 29.3857 5.33523 29.2692 5.66193C29.1555 5.9858 29.0987 6.34801 29.0987 6.74858C29.0987 7.14631 29.1555 7.5071 29.2692 7.83097C29.3857 8.15483 29.5604 8.41335 29.7933 8.60653C30.0291 8.79687 30.3246 8.89205 30.6797 8.89205ZM40.9485 10.1278C40.3093 10.1278 39.7553 9.98722 39.2866 9.70597C38.8178 9.42472 38.4542 9.03125 38.1957 8.52557C37.94 8.01989 37.8121 7.42898 37.8121 6.75284C37.8121 6.0767 37.94 5.48437 38.1957 4.97585C38.4542 4.46733 38.8178 4.07244 39.2866 3.79119C39.7553 3.50994 40.3093 3.36932 40.9485 3.36932C41.5877 3.36932 42.1417 3.50994 42.6104 3.79119C43.0792 4.07244 43.4414 4.46733 43.6971 4.97585C43.9556 5.48437 44.0849 6.0767 44.0849 6.75284C44.0849 7.42898 43.9556 8.01989 43.6971 8.52557C43.4414 9.03125 43.0792 9.42472 42.6104 9.70597C42.1417 9.98722 41.5877 10.1278 40.9485 10.1278ZM40.957 8.89205C41.3036 8.89205 41.5934 8.79687 41.8263 8.60653C42.0593 8.41335 42.2326 8.15483 42.3462 7.83097C42.4627 7.5071 42.521 7.14631 42.521 6.74858C42.521 6.34801 42.4627 5.9858 42.3462 5.66193C42.2326 5.33523 42.0593 5.07528 41.8263 4.8821C41.5934 4.68892 41.3036 4.59233 40.957 4.59233C40.6019 4.59233 40.3065 4.68892 40.0707 4.8821C39.8377 5.07528 39.663 5.33523 39.5465 5.66193C39.4329 5.9858 39.3761 6.34801 39.3761 6.74858C39.3761 7.14631 39.4329 7.5071 39.5465 7.83097C39.663 8.15483 39.8377 8.41335 40.0707 8.60653C40.3065 8.79687 40.6019 8.89205 40.957 8.89205ZM48.7095 3.45455V4.64773H44.8402V3.45455H48.7095ZM45.8075 10V2.83665C45.8075 2.39631 45.8984 2.02983 46.0803 1.73722C46.2649 1.4446 46.5121 1.22585 46.8217 1.08097C47.1314 0.936079 47.4751 0.863636 47.853 0.863636C48.12 0.863636 48.3572 0.884943 48.5646 0.927557C48.772 0.97017 48.9254 1.00852 49.0249 1.04261L48.718 2.2358C48.6527 2.21591 48.5703 2.19602 48.4709 2.17614C48.3714 2.15341 48.2607 2.14205 48.1385 2.14205C47.8516 2.14205 47.6484 2.21165 47.5291 2.35085C47.4126 2.48722 47.3544 2.68324 47.3544 2.93892V10H45.8075ZM53.233 3.45455V4.64773H49.3636V3.45455H53.233ZM50.331 10V2.83665C50.331 2.39631 50.4219 2.02983 50.6037 1.73722C50.7884 1.4446 51.0355 1.22585 51.3452 1.08097C51.6548 0.936079 51.9986 0.863636 52.3764 0.863636C52.6435 0.863636 52.8807 0.884943 53.0881 0.927557C53.2955 0.97017 53.4489 1.00852 53.5483 1.04261L53.2415 2.2358C53.1761 2.21591 53.0938 2.19602 52.9943 2.17614C52.8949 2.15341 52.7841 2.14205 52.6619 2.14205C52.375 2.14205 52.1719 2.21165 52.0526 2.35085C51.9361 2.48722 51.8778 2.68324 51.8778 2.93892V10H50.331Z" fill="#377ADF"/>
</svg>
