<svg width="53" height="53" viewBox="0 0 53 53" fill="none" xmlns="http://www.w3.org/2000/svg">
<rect width="53" height="53" rx="26.5" fill="white" fill-opacity="0.1"/>
<g clip-path="url(#clip0_2143_2183)">
<path d="M11.7715 21.3784H16.0902C16.2738 21.3784 16.4524 21.3153 16.5913 21.1986L24.9833 14.1821C25.4843 13.7642 26.2558 14.1117 26.2558 14.7555V38.2419C26.2558 38.8809 25.4967 39.2307 24.9932 38.825L16.6707 32.1097C16.5318 31.998 16.3581 31.9372 16.1795 31.9372H11.7715C11.3448 31.9372 11 31.5995 11 31.1816V22.134C11 21.7186 11.3448 21.3784 11.7715 21.3784Z" fill="#377ADF" fill-opacity="0.7"/>
<path d="M32.7997 32.6971C34.3278 31.1422 35.2704 29.0309 35.2704 26.7034C35.2704 24.2471 34.2236 22.0314 32.5417 20.457L30.8946 22.1067C32.1374 23.2607 32.9138 24.8934 32.9138 26.7034C32.9138 28.3846 32.244 29.9128 31.1526 31.0474L32.7997 32.6971Z" fill="#377ADF" fill-opacity="0.7"/>
<path d="M38.2074 38.1105C41.1693 35.1805 43 31.1523 43 26.7038C43 22.1266 41.0602 17.9963 37.947 15.0469L36.213 16.7816C38.8673 19.2913 40.5194 22.8068 40.5194 26.7038C40.5194 30.472 38.974 33.8856 36.4735 36.3734L38.2074 38.1105Z" fill="#377ADF" fill-opacity="0.7"/>
</g>
<rect x="1" y="1" width="51" height="51" rx="25.5" stroke="#377ADF" stroke-opacity="0.7" stroke-width="2"/>
<defs>
<clipPath id="clip0_2143_2183">
<rect width="32" height="25" fill="white" transform="translate(11 14)"/>
</clipPath>
</defs>
</svg>
