<svg width="52" height="11" viewBox="0 0 52 11" fill="none" xmlns="http://www.w3.org/2000/svg">
<path d="M2.20028 10H0.512784L3.58523 1.27273H5.53693L8.61364 10H6.92614L4.59517 3.0625H4.52699L2.20028 10ZM2.25568 6.57812H6.85795V7.84801H2.25568V6.57812ZM13.8668 7.24716V3.45455H15.4094V10H13.9137V8.83665H13.8455C13.6978 9.20312 13.4549 9.50284 13.1168 9.7358C12.7816 9.96875 12.3683 10.0852 11.8768 10.0852C11.4478 10.0852 11.0685 9.99006 10.739 9.79972C10.4123 9.60653 10.1566 9.3267 9.97195 8.96023C9.78729 8.59091 9.69496 8.14489 9.69496 7.62216V3.45455H11.2376V7.38352C11.2376 7.7983 11.3512 8.12784 11.5785 8.37216C11.8058 8.61648 12.104 8.73864 12.4734 8.73864C12.7006 8.73864 12.9208 8.68324 13.1339 8.57244C13.3469 8.46165 13.5217 8.29688 13.658 8.07812C13.7972 7.85653 13.8668 7.57955 13.8668 7.24716ZM19.4247 10.1151C18.9105 10.1151 18.4503 9.98295 18.044 9.71875C17.6378 9.45455 17.3168 9.07102 17.081 8.56818C16.8452 8.06534 16.7273 7.45455 16.7273 6.7358C16.7273 6.00852 16.8466 5.39489 17.0852 4.89489C17.3267 4.39205 17.652 4.01278 18.0611 3.7571C18.4702 3.49858 18.9261 3.36932 19.429 3.36932C19.8125 3.36932 20.1278 3.43466 20.375 3.56534C20.6222 3.69318 20.8182 3.84801 20.9631 4.02983C21.108 4.20881 21.2202 4.37784 21.2997 4.53693H21.3636V1.27273H22.9105V10H21.3935V8.96875H21.2997C21.2202 9.12784 21.1051 9.29687 20.9545 9.47585C20.804 9.65199 20.6051 9.80256 20.358 9.92756C20.1108 10.0526 19.7997 10.1151 19.4247 10.1151ZM19.8551 8.84943C20.1818 8.84943 20.4602 8.76136 20.6903 8.58523C20.9205 8.40625 21.0952 8.15767 21.2145 7.83949C21.3338 7.52131 21.3935 7.15057 21.3935 6.72727C21.3935 6.30398 21.3338 5.93608 21.2145 5.62358C21.098 5.31108 20.9247 5.06818 20.6946 4.89489C20.4673 4.72159 20.1875 4.63494 19.8551 4.63494C19.5114 4.63494 19.2244 4.72443 18.9943 4.90341C18.7642 5.08239 18.5909 5.32955 18.4744 5.64489C18.358 5.96023 18.2997 6.32102 18.2997 6.72727C18.2997 7.13636 18.358 7.50142 18.4744 7.82244C18.5938 8.14062 18.7685 8.39205 18.9986 8.5767C19.2315 8.75852 19.517 8.84943 19.8551 8.84943ZM24.5543 10V3.45455H26.0969V10H24.5543ZM25.3299 2.52557C25.0856 2.52557 24.8754 2.4446 24.6992 2.28267C24.5231 2.1179 24.435 1.92045 24.435 1.69034C24.435 1.45739 24.5231 1.25994 24.6992 1.09801C24.8754 0.933238 25.0856 0.850852 25.3299 0.850852C25.5771 0.850852 25.7873 0.933238 25.9606 1.09801C26.1367 1.25994 26.2248 1.45739 26.2248 1.69034C26.2248 1.92045 26.1367 2.1179 25.9606 2.28267C25.7873 2.4446 25.5771 2.52557 25.3299 2.52557ZM30.5384 10.1278C29.8991 10.1278 29.3452 9.98722 28.8764 9.70597C28.4077 9.42472 28.044 9.03125 27.7855 8.52557C27.5298 8.01989 27.402 7.42898 27.402 6.75284C27.402 6.0767 27.5298 5.48437 27.7855 4.97585C28.044 4.46733 28.4077 4.07244 28.8764 3.79119C29.3452 3.50994 29.8991 3.36932 30.5384 3.36932C31.1776 3.36932 31.7315 3.50994 32.2003 3.79119C32.669 4.07244 33.0313 4.46733 33.2869 4.97585C33.5455 5.48437 33.6747 6.0767 33.6747 6.75284C33.6747 7.42898 33.5455 8.01989 33.2869 8.52557C33.0313 9.03125 32.669 9.42472 32.2003 9.70597C31.7315 9.98722 31.1776 10.1278 30.5384 10.1278ZM30.5469 8.89205C30.8935 8.89205 31.1832 8.79687 31.4162 8.60653C31.6491 8.41335 31.8224 8.15483 31.9361 7.83097C32.0526 7.5071 32.1108 7.14631 32.1108 6.74858C32.1108 6.34801 32.0526 5.9858 31.9361 5.66193C31.8224 5.33523 31.6491 5.07528 31.4162 4.8821C31.1832 4.68892 30.8935 4.59233 30.5469 4.59233C30.1918 4.59233 29.8963 4.68892 29.6605 4.8821C29.4276 5.07528 29.2528 5.33523 29.1364 5.66193C29.0227 5.9858 28.9659 6.34801 28.9659 6.74858C28.9659 7.14631 29.0227 7.5071 29.1364 7.83097C29.2528 8.15483 29.4276 8.41335 29.6605 8.60653C29.8963 8.79687 30.1918 8.89205 30.5469 8.89205ZM40.8157 10.1278C40.1765 10.1278 39.6225 9.98722 39.1538 9.70597C38.685 9.42472 38.3214 9.03125 38.0629 8.52557C37.8072 8.01989 37.6793 7.42898 37.6793 6.75284C37.6793 6.0767 37.8072 5.48437 38.0629 4.97585C38.3214 4.46733 38.685 4.07244 39.1538 3.79119C39.6225 3.50994 40.1765 3.36932 40.8157 3.36932C41.4549 3.36932 42.0089 3.50994 42.4776 3.79119C42.9464 4.07244 43.3086 4.46733 43.5643 4.97585C43.8228 5.48437 43.9521 6.0767 43.9521 6.75284C43.9521 7.42898 43.8228 8.01989 43.5643 8.52557C43.3086 9.03125 42.9464 9.42472 42.4776 9.70597C42.0089 9.98722 41.4549 10.1278 40.8157 10.1278ZM40.8242 8.89205C41.1708 8.89205 41.4606 8.79687 41.6935 8.60653C41.9265 8.41335 42.0998 8.15483 42.2134 7.83097C42.3299 7.5071 42.3881 7.14631 42.3881 6.74858C42.3881 6.34801 42.3299 5.9858 42.2134 5.66193C42.0998 5.33523 41.9265 5.07528 41.6935 4.8821C41.4606 4.68892 41.1708 4.59233 40.8242 4.59233C40.4691 4.59233 40.1737 4.68892 39.9379 4.8821C39.7049 5.07528 39.5302 5.33523 39.4137 5.66193C39.3001 5.9858 39.2433 6.34801 39.2433 6.74858C39.2433 7.14631 39.3001 7.5071 39.4137 7.83097C39.5302 8.15483 39.7049 8.41335 39.9379 8.60653C40.1737 8.79687 40.4691 8.89205 40.8242 8.89205ZM46.804 6.16477V10H45.2614V3.45455H46.7358V4.56676H46.8125C46.9631 4.20028 47.2031 3.90909 47.5327 3.69318C47.8651 3.47727 48.2756 3.36932 48.7642 3.36932C49.2159 3.36932 49.6094 3.46591 49.9446 3.65909C50.2827 3.85227 50.544 4.1321 50.7287 4.49858C50.9162 4.86506 51.0085 5.30966 51.0057 5.83239V10H49.4631V6.07102C49.4631 5.63352 49.3494 5.29119 49.1222 5.04403C48.8977 4.79687 48.5866 4.6733 48.1889 4.6733C47.919 4.6733 47.679 4.73295 47.4688 4.85227C47.2614 4.96875 47.098 5.13778 46.9787 5.35938C46.8622 5.58097 46.804 5.84943 46.804 6.16477Z" fill="#377ADF" fill-opacity="0.7"/>
</svg>
